<?xml version="1.0" encoding="UTF-8"?>
<svg width="16px" height="16px" viewBox="0 0 16 16" version="1.1" xmlns="http://www.w3.org/2000/svg" xmlns:xlink="http://www.w3.org/1999/xlink">
    <title>youqu</title>
    <defs>
        <linearGradient x1="50%" y1="-10.4717632%" x2="50%" y2="100%" id="linearGradient-1">
            <stop stop-color="#6AC900" offset="0%"></stop>
            <stop stop-color="#008989" offset="100%"></stop>
        </linearGradient>
    </defs>
    <g id="youqu" stroke="none" stroke-width="1" fill="none" fill-rule="evenodd">
        <rect id="矩形" fill="url(#linearGradient-1)" x="1" y="1" width="14" height="14" rx="2.75"></rect>
        <g id="编组" transform="translate(8, 8) rotate(-330) translate(-8, -8)translate(2.7419, 2.8197)">
            <path d="M8.23007801,2.48959414 C8.86138697,2.48959414 9.373164,3.00137118 9.373164,3.63268014 L9.373164,7.06193813 L9.373164,7.06193813 C8.11054608,7.06193813 7.08699201,6.03838406 7.08699201,4.77576613 L7.08699201,3.63268014 C7.08699201,3.00137118 7.59876904,2.48959414 8.23007801,2.48959414 Z" id="矩形" fill="#D5E8C0" transform="translate(8.2301, 4.7758) rotate(-270) translate(-8.2301, -4.7758)"></path>
            <path d="M2.28617199,3.32983217 C2.91748096,3.32983217 3.42925799,3.8416092 3.42925799,4.47291816 L3.42925799,7.90217615 L3.42925799,7.90217615 C2.16664006,7.90217615 1.143086,6.87862208 1.143086,5.61600416 L1.143086,4.47291816 C1.143086,3.8416092 1.65486303,3.32983217 2.28617199,3.32983217 Z" id="矩形" fill="#FFFFFF" transform="translate(2.2862, 5.616) rotate(-90) translate(-2.2862, -5.616)"></path>
            <path d="M4.93136577,2.27373675e-13 C5.56267473,2.27257706e-13 6.07445177,0.511777033 6.07445177,1.143086 L6.07445177,4.57234399 L6.07445177,4.57234399 C4.81183384,4.57234399 3.78827977,3.54878992 3.78827977,2.28617199 L3.78827977,1.143086 C3.78827977,0.511777033 4.30005681,2.27489645e-13 4.93136577,2.27373675e-13 Z" id="矩形" fill="#FFFFFF"></path>
            <path d="M5.61600416,5.78830638 C6.24731312,5.78830638 6.75909015,6.30008341 6.75909015,6.93139238 L6.75909015,10.3606504 L6.75909015,10.3606504 C5.49647223,10.3606504 4.47291816,9.3370963 4.47291816,8.07447837 L4.47291816,6.93139238 C4.47291816,6.30008341 4.98469519,5.78830638 5.61600416,5.78830638 Z" id="矩形" fill="#FFFFFF" transform="translate(5.616, 8.0745) scale(-1, -1) rotate(-360) translate(-5.616, -8.0745)"></path>
        </g>
    </g>
</svg>