<?xml version="1.0" encoding="UTF-8" standalone="no"?>
<!-- Created with Inkscape (http://www.inkscape.org/) -->
<svg
   xmlns:i="http://ns.adobe.com/AdobeIllustrator/10.0/"
   xmlns:a="http://ns.adobe.com/AdobeSVGViewerExtensions/3.0/"
   xmlns:dc="http://purl.org/dc/elements/1.1/"
   xmlns:cc="http://web.resource.org/cc/"
   xmlns:rdf="http://www.w3.org/1999/02/22-rdf-syntax-ns#"
   xmlns:svg="http://www.w3.org/2000/svg"
   xmlns="http://www.w3.org/2000/svg"
   xmlns:sodipodi="http://inkscape.sourceforge.net/DTD/sodipodi-0.dtd"
   xmlns:inkscape="http://www.inkscape.org/namespaces/inkscape"
   width="64.000000pt"
   height="64.000000pt"
   id="svg4424"
   sodipodi:version="0.32"
   inkscape:version="0.42"
   sodipodi:docbase="/home/zack/Desktop/dtlogos"
   sodipodi:docname="dogtail-tail.svg">
  <defs
     id="defs4426">
    <radialGradient
       id="XMLID_97_"
       cx="1115.2148"
       cy="-4111.3169"
       r="819.20001"
       fx="1115.2148"
       fy="-4111.3169"
       gradientTransform="matrix(6.810000e-2,-2.100000e-2,9.100000e-3,4.020000e-2,160.8859,238.5417)"
       gradientUnits="userSpaceOnUse">
      <stop
         offset="0"
         style="stop-color:#008837"
         id="stop2978" />
      <stop
         offset="1"
         style="stop-color:#000000"
         id="stop2980" />
      <a:midPointStop
         offset="0"
         style="stop-color:#008837" />
      <a:midPointStop
         offset="0.5"
         style="stop-color:#008837" />
      <a:midPointStop
         offset="1"
         style="stop-color:#000000" />
    </radialGradient>
    <linearGradient
       id="XMLID_62_"
       gradientUnits="userSpaceOnUse"
       x1="-3667.3906"
       y1="-23573.730"
       x2="-2028.9906"
       y2="-23573.730"
       gradientTransform="matrix(2.750000e-2,2.070000e-2,-4.800000e-3,6.300000e-3,161.4600,276.9943)">
      <stop
         offset="0.0275"
         style="stop-color:#4A4A4A"
         id="stop2489" />
      <stop
         offset="0.5412"
         style="stop-color:#FFFFFF"
         id="stop2491" />
      <stop
         offset="1"
         style="stop-color:#000000"
         id="stop2493" />
      <a:midPointStop
         offset="0.0275"
         style="stop-color:#4A4A4A" />
      <a:midPointStop
         offset="0.5"
         style="stop-color:#4A4A4A" />
      <a:midPointStop
         offset="0.5412"
         style="stop-color:#FFFFFF" />
      <a:midPointStop
         offset="0.5"
         style="stop-color:#FFFFFF" />
      <a:midPointStop
         offset="1"
         style="stop-color:#000000" />
    </linearGradient>
    <linearGradient
       id="XMLID_61_"
       gradientUnits="userSpaceOnUse"
       x1="-4085.7969"
       y1="-27067.957"
       x2="-2447.3970"
       y2="-27067.957"
       gradientTransform="matrix(2.390000e-2,1.810000e-2,-4.200000e-3,5.500000e-3,157.6075,283.4794)">
      <stop
         offset="0.0275"
         style="stop-color:#4A4A4A"
         id="stop2476" />
      <stop
         offset="0.5412"
         style="stop-color:#FFFFFF"
         id="stop2478" />
      <stop
         offset="1"
         style="stop-color:#000000"
         id="stop2480" />
      <a:midPointStop
         offset="0.0275"
         style="stop-color:#4A4A4A" />
      <a:midPointStop
         offset="0.5"
         style="stop-color:#4A4A4A" />
      <a:midPointStop
         offset="0.5412"
         style="stop-color:#FFFFFF" />
      <a:midPointStop
         offset="0.5"
         style="stop-color:#FFFFFF" />
      <a:midPointStop
         offset="1"
         style="stop-color:#000000" />
    </linearGradient>
  </defs>
  <sodipodi:namedview
     id="base"
     pagecolor="#ffffff"
     bordercolor="#666666"
     borderopacity="1.0"
     inkscape:pageopacity="0.0"
     inkscape:pageshadow="2"
     inkscape:zoom="1.6081777"
     inkscape:cx="116.41672"
     inkscape:cy="61.505776"
     inkscape:document-units="px"
     inkscape:current-layer="layer1"
     inkscape:window-width="753"
     inkscape:window-height="513"
     inkscape:window-x="209"
     inkscape:window-y="46" />
  <metadata
     id="metadata4429">
    <rdf:RDF>
      <cc:Work
         rdf:about="">
        <dc:format>image/svg+xml</dc:format>
        <dc:type
           rdf:resource="http://purl.org/dc/dcmitype/StillImage" />
        <dc:creator>
          <cc:Agent>
            <dc:title>Máirín Duffy</dc:title>
          </cc:Agent>
        </dc:creator>
        <dc:rights>
          <cc:Agent>
            <dc:title>Red Hat, Inc.</dc:title>
          </cc:Agent>
        </dc:rights>
        <cc:license
           rdf:resource="http://creativecommons.org/licenses/GPL/2.0/" />
        <dc:title>dogtail tail</dc:title>
      </cc:Work>
      <cc:License
         rdf:about="http://creativecommons.org/licenses/GPL/2.0/">
        <cc:permits
           rdf:resource="http://web.resource.org/cc/Reproduction" />
        <cc:permits
           rdf:resource="http://web.resource.org/cc/Distribution" />
        <cc:requires
           rdf:resource="http://web.resource.org/cc/Notice" />
        <cc:permits
           rdf:resource="http://web.resource.org/cc/DerivativeWorks" />
        <cc:requires
           rdf:resource="http://web.resource.org/cc/ShareAlike" />
        <cc:requires
           rdf:resource="http://web.resource.org/cc/SourceCode" />
      </cc:License>
    </rdf:RDF>
  </metadata>
  <g
     inkscape:label="Layer 1"
     inkscape:groupmode="layer"
     id="layer1">
    <g
       transform="translate(-156.7689,-29.69089)"
       id="g4297"
       inkscape:export-filename="/home/zack/Desktop/dogtail-tail-logo-128.png"
       inkscape:export-xdpi="288.03000"
       inkscape:export-ydpi="288.03000">
      <g
         id="g2394">
        <path
           i:knockout="Off"
           d="M 209.00000,48.408000 C 208.90000,48.408000 208.90000,48.408000 208.70000,48.408000 C 208.30000,47.708000 207.90000,47.108000 207.30000,46.508000 C 207.30000,46.408000 207.10000,46.308000 206.90000,46.108000 C 206.70000,45.208000 206.30000,44.608000 205.50000,44.108000 C 205.40000,44.108000 205.20000,44.008000 205.10000,44.008000 C 205.00000,44.008000 205.00000,44.008000 204.90000,44.108000 C 204.90000,44.108000 204.90000,44.108000 204.90000,44.208000 L 204.80000,44.408000 C 204.80000,44.508000 204.80000,44.508000 204.80000,44.608000 C 204.90000,44.708000 205.10000,44.908000 205.10000,45.008000 L 205.10000,45.008000 C 204.10000,47.408000 202.90000,49.808000 201.90000,52.108000 C 200.80000,54.508000 199.70000,56.708000 198.60000,59.108000 C 198.00000,60.008000 197.60000,61.008000 197.20000,62.108000 C 196.30000,64.608000 195.20000,67.008000 194.00000,69.308000 C 192.80000,71.608000 191.60000,73.908000 190.10000,76.108000 C 188.70000,78.208000 187.30000,80.508000 186.10000,82.708000 C 185.40000,83.908000 184.80000,85.008000 184.20000,86.108000 C 182.80000,88.408000 181.70000,90.708000 180.80000,93.108000 C 179.70000,95.508000 178.80000,98.008000 177.80000,100.50800 C 177.60000,101.00800 177.60000,101.60800 177.60000,102.10800 C 177.70000,102.20800 177.70000,102.50800 177.70000,102.60800 C 177.80000,102.60800 177.80000,102.60800 177.90000,102.60800 C 178.00000,102.60800 178.20000,102.60800 178.30000,102.50800 C 179.30000,102.10800 180.40000,102.00800 181.40000,102.20800 C 182.10000,102.40800 182.70000,102.40800 183.30000,102.20800 C 183.50000,102.20800 183.80000,102.10800 183.80000,102.10800 C 183.90000,102.00800 183.90000,102.00800 184.10000,102.00800 L 184.10000,102.00800 C 184.20000,101.60800 184.30000,101.20800 184.30000,101.00800 C 185.00000,98.408000 185.70000,95.908000 186.50000,93.508000 C 187.40000,91.008000 188.30000,88.608000 189.40000,86.208000 C 190.50000,83.908000 191.70000,81.608000 193.20000,79.308000 C 194.50000,77.008000 195.80000,74.708000 197.10000,72.608000 C 198.40000,70.308000 199.70000,68.008000 200.90000,65.608000 C 202.10000,63.408000 203.40000,61.008000 204.40000,58.708000 C 205.40000,56.308000 206.60000,54.008000 207.80000,51.608000 C 208.20000,51.108000 208.70000,50.608000 209.10000,50.008000 C 209.40000,49.508000 209.40000,48.908000 209.20000,48.508000 C 209.10000,48.408000 209.10000,48.408000 209.00000,48.408000 z M 207.40000,50.208000 L 207.40000,50.408000 C 206.90000,51.108000 206.40000,52.108000 205.90000,53.008000 C 204.70000,55.208000 203.40000,57.508000 202.30000,59.908000 C 201.30000,62.208000 200.10000,64.608000 198.90000,66.808000 C 197.70000,69.108000 196.40000,71.408000 195.10000,73.608000 C 193.80000,75.908000 192.40000,78.208000 191.20000,80.508000 C 189.80000,82.708000 188.60000,85.008000 187.60000,87.508000 C 186.40000,89.708000 185.40000,92.208000 184.70000,94.808000 C 184.40000,95.708000 184.20000,96.608000 183.80000,97.608000 C 183.40000,98.608000 183.20000,99.808000 183.30000,101.00800 L 183.30000,100.90800 C 183.20000,101.00800 183.20000,101.00800 183.20000,101.00800 C 183.10000,101.10800 183.10000,101.10800 183.10000,101.20800 C 181.90000,101.00800 180.70000,101.00800 179.60000,101.10800 C 179.40000,101.20800 179.20000,101.20800 178.80000,101.40800 C 178.90000,101.10800 179.10000,101.00800 179.10000,100.60800 C 179.40000,100.00800 179.70000,99.008000 179.90000,98.308000 C 180.80000,95.808000 181.90000,93.508000 182.90000,91.108000 C 183.70000,89.408000 184.70000,87.608000 185.60000,85.908000 C 186.30000,84.408000 187.00000,83.008000 187.90000,81.608000 C 189.30000,79.408000 190.70000,77.108000 192.20000,74.908000 C 193.50000,72.708000 194.70000,70.408000 195.80000,68.008000 C 196.80000,65.608000 197.90000,63.108000 198.80000,60.708000 C 199.10000,60.108000 199.30000,59.408000 199.70000,58.708000 C 200.70000,56.408000 201.70000,53.908000 202.90000,51.608000 C 203.80000,49.808000 204.60000,48.008000 205.40000,46.108000 C 205.40000,46.508000 205.60000,46.608000 206.00000,46.808000 C 206.00000,46.908000 206.00000,46.908000 206.10000,47.008000 C 206.30000,47.208000 206.50000,47.408000 206.60000,47.608000 C 206.60000,47.908000 206.60000,48.008000 206.60000,48.208000 C 206.70000,48.808000 206.80000,49.408000 207.40000,49.808000 C 207.30000,50.008000 207.40000,50.108000 207.40000,50.208000 z "
           id="path2396" />
        <path
           i:knockout="Off"
           d="M 207.40000,50.408000 L 207.40000,50.208000 C 207.40000,50.108000 207.30000,50.008000 207.40000,49.808000 C 206.80000,49.408000 206.70000,48.808000 206.60000,48.208000 C 206.60000,48.008000 206.60000,47.908000 206.60000,47.608000 C 206.50000,47.408000 206.30000,47.208000 206.10000,47.008000 C 206.00000,46.908000 206.00000,46.908000 206.00000,46.808000 C 205.60000,46.608000 205.40000,46.508000 205.40000,46.108000 C 204.60000,48.008000 203.80000,49.808000 202.90000,51.608000 C 201.70000,53.908000 200.70000,56.408000 199.70000,58.708000 C 199.30000,59.408000 199.10000,60.108000 198.80000,60.708000 C 197.90000,63.108000 196.80000,65.608000 195.80000,68.008000 C 194.70000,70.408000 193.50000,72.708000 192.20000,74.908000 C 190.70000,77.108000 189.30000,79.408000 187.90000,81.608000 C 187.00000,83.008000 186.30000,84.408000 185.60000,85.908000 C 184.70000,87.608000 183.70000,89.408000 182.90000,91.108000 C 181.90000,93.508000 180.80000,95.808000 179.90000,98.308000 C 179.70000,99.008000 179.40000,100.00800 179.10000,100.60800 C 179.10000,101.00800 178.90000,101.10800 178.80000,101.40800 C 179.20000,101.20800 179.40000,101.20800 179.60000,101.10800 C 180.70000,101.00800 181.90000,101.00800 183.10000,101.20800 C 183.10000,101.10800 183.10000,101.10800 183.20000,101.00800 C 183.20000,101.00800 183.20000,101.00800 183.30000,100.90800 L 183.30000,101.00800 C 183.20000,99.808000 183.40000,98.608000 183.80000,97.608000 C 184.20000,96.608000 184.40000,95.708000 184.70000,94.808000 C 185.40000,92.208000 186.40000,89.708000 187.60000,87.508000 C 188.60000,85.008000 189.80000,82.708000 191.20000,80.508000 C 192.40000,78.208000 193.80000,75.908000 195.10000,73.608000 C 196.40000,71.408000 197.70000,69.108000 198.90000,66.808000 C 200.10000,64.608000 201.30000,62.208000 202.30000,59.908000 C 203.40000,57.508000 204.70000,55.208000 205.90000,53.008000 C 206.40000,52.108000 206.90000,51.108000 207.40000,50.408000 z "
           id="path2398"
           style="fill:#333333" />
      </g>
      <g
         id="g2471">
        <path
           i:knockout="Off"
           d="M 209.30000,80.708000 C 209.20000,80.608000 209.10000,80.408000 208.80000,79.908000 C 208.60000,79.508000 207.70000,78.608000 206.30000,77.108000 C 204.90000,75.708000 201.70000,74.008000 196.40000,71.908000 C 195.70000,72.608000 195.30000,73.508000 195.00000,74.708000 C 195.70000,74.808000 196.50000,75.008000 197.20000,75.408000 C 197.90000,75.708000 198.40000,76.008000 198.70000,76.108000 C 198.90000,76.208000 199.30000,76.408000 199.60000,76.608000 C 199.90000,76.808000 200.40000,77.108000 201.30000,77.608000 C 202.20000,78.008000 202.80000,78.808000 203.20000,79.808000 C 203.10000,79.908000 202.70000,80.008000 202.10000,80.008000 C 201.30000,80.008000 200.30000,79.708000 198.70000,79.508000 C 197.30000,79.108000 195.70000,78.608000 194.00000,77.908000 C 192.30000,77.008000 190.20000,75.908000 187.70000,74.508000 C 185.10000,72.908000 183.70000,72.008000 183.60000,71.608000 C 183.40000,71.208000 183.70000,71.008000 184.40000,71.208000 C 185.20000,71.208000 186.90000,71.708000 189.80000,72.508000 C 191.30000,72.908000 192.10000,73.108000 192.20000,73.408000 C 192.70000,73.008000 193.10000,72.408000 193.30000,71.608000 C 193.60000,70.908000 193.80000,70.408000 194.10000,70.508000 C 190.00000,69.108000 187.80000,68.408000 187.30000,68.408000 C 186.90000,68.208000 186.30000,68.108000 185.30000,67.908000 C 184.40000,67.608000 183.50000,67.508000 182.50000,67.308000 C 181.60000,67.108000 180.70000,67.108000 179.70000,67.408000 C 178.90000,67.608000 178.30000,67.908000 178.20000,68.308000 C 177.90000,68.708000 177.70000,69.108000 177.70000,69.508000 C 177.50000,70.008000 177.60000,70.508000 177.70000,71.208000 C 177.80000,72.008000 178.30000,72.608000 179.10000,73.108000 C 182.40000,76.008000 186.70000,78.508000 191.60000,80.608000 C 196.60000,82.808000 200.30000,84.008000 203.10000,84.108000 L 204.80000,84.208000 C 206.20000,84.408000 207.00000,84.408000 207.30000,84.208000 C 208.00000,83.908000 208.60000,83.508000 208.80000,83.208000 C 209.20000,82.908000 209.30000,82.408000 209.30000,81.808000 C 209.30000,81.208000 209.30000,80.908000 209.30000,80.708000 z M 208.10000,80.808000 C 208.30000,81.008000 208.40000,81.408000 208.30000,81.608000 C 207.90000,82.208000 207.70000,82.608000 207.40000,82.608000 C 206.90000,82.908000 206.40000,83.008000 205.90000,83.008000 C 204.60000,83.008000 203.30000,82.908000 202.30000,82.708000 L 200.20000,82.208000 C 199.60000,82.108000 198.70000,82.008000 197.70000,81.708000 C 196.90000,81.508000 195.90000,81.208000 194.90000,80.808000 L 191.90000,79.508000 C 190.60000,78.908000 189.70000,78.508000 189.30000,78.408000 C 188.90000,78.108000 188.70000,78.008000 188.70000,78.008000 C 185.90000,76.408000 184.20000,75.208000 183.20000,74.608000 L 181.70000,73.708000 C 180.60000,73.008000 180.50000,73.008000 181.40000,73.608000 L 180.70000,73.108000 C 179.70000,72.308000 178.90000,71.408000 178.60000,70.508000 C 178.30000,69.508000 178.70000,68.908000 179.70000,68.408000 C 180.30000,68.108000 181.10000,68.108000 182.10000,68.208000 C 183.50000,68.408000 185.10000,68.708000 186.80000,69.208000 L 192.70000,71.008000 L 192.10000,72.208000 L 187.20000,70.708000 C 184.90000,70.108000 183.40000,70.008000 182.70000,70.208000 C 181.90000,70.408000 181.70000,70.808000 182.00000,71.508000 C 182.30000,72.008000 183.00000,72.608000 184.30000,73.408000 C 184.80000,73.708000 185.90000,74.408000 187.60000,75.408000 L 192.10000,77.908000 C 192.80000,78.208000 193.70000,78.608000 194.70000,79.008000 L 199.40000,80.608000 L 202.70000,81.208000 C 203.30000,81.308000 203.80000,81.308000 204.20000,81.008000 C 205.00000,80.608000 204.90000,79.908000 204.10000,78.808000 C 203.10000,77.708000 202.10000,76.908000 200.70000,76.408000 L 196.10000,74.008000 L 196.80000,73.008000 L 199.60000,74.408000 C 203.50000,75.908000 206.20000,77.808000 207.70000,80.108000 L 208.10000,80.808000 z "
           id="path2473" />
        <linearGradient
           id="linearGradient4449"
           gradientUnits="userSpaceOnUse"
           x1="-4085.7969"
           y1="-27067.957"
           x2="-2447.3970"
           y2="-27067.957"
           gradientTransform="matrix(2.390000e-2,1.810000e-2,-4.200000e-3,5.500000e-3,157.6075,283.4794)">
          <stop
             offset="0.0275"
             style="stop-color:#4A4A4A"
             id="stop4451" />
          <stop
             offset="0.5412"
             style="stop-color:#FFFFFF"
             id="stop4453" />
          <stop
             offset="1"
             style="stop-color:#000000"
             id="stop4455" />
          <a:midPointStop
             offset="0.0275"
             style="stop-color:#4A4A4A" />
          <a:midPointStop
             offset="0.5"
             style="stop-color:#4A4A4A" />
          <a:midPointStop
             offset="0.5412"
             style="stop-color:#FFFFFF" />
          <a:midPointStop
             offset="0.5"
             style="stop-color:#FFFFFF" />
          <a:midPointStop
             offset="1"
             style="stop-color:#000000" />
        </linearGradient>
        <path
           i:knockout="Off"
           d="M 208.30000,81.608000 C 208.40000,81.408000 208.30000,81.008000 208.10000,80.808000 L 207.70000,80.108000 C 206.20000,77.808000 203.50000,75.908000 199.60000,74.408000 L 196.80000,73.008000 L 196.10000,74.008000 L 200.70000,76.408000 C 202.10000,76.908000 203.10000,77.708000 204.10000,78.808000 C 204.90000,79.908000 205.00000,80.608000 204.20000,81.008000 C 203.80000,81.308000 203.30000,81.308000 202.70000,81.208000 L 199.40000,80.608000 L 194.70000,79.008000 C 193.70000,78.608000 192.80000,78.208000 192.10000,77.908000 L 187.60000,75.408000 C 185.90000,74.408000 184.80000,73.708000 184.30000,73.408000 C 183.00000,72.608000 182.30000,72.008000 182.00000,71.508000 C 181.70000,70.808000 181.90000,70.408000 182.70000,70.208000 C 183.40000,70.008000 184.90000,70.108000 187.20000,70.708000 L 192.10000,72.208000 L 192.70000,71.008000 L 186.80000,69.208000 C 185.10000,68.708000 183.50000,68.408000 182.10000,68.208000 C 181.10000,68.108000 180.30000,68.108000 179.70000,68.408000 C 178.70000,68.908000 178.30000,69.508000 178.60000,70.508000 C 178.90000,71.408000 179.70000,72.308000 180.70000,73.108000 L 181.40000,73.608000 C 180.50000,73.008000 180.60000,73.008000 181.70000,73.708000 L 183.20000,74.608000 C 184.20000,75.208000 185.90000,76.408000 188.70000,78.008000 C 188.70000,78.008000 188.90000,78.108000 189.30000,78.408000 C 189.70000,78.508000 190.60000,78.908000 191.90000,79.508000 L 194.90000,80.808000 C 195.90000,81.208000 196.90000,81.508000 197.70000,81.708000 C 198.70000,82.008000 199.60000,82.108000 200.20000,82.208000 L 202.30000,82.708000 C 203.30000,82.908000 204.60000,83.008000 205.90000,83.008000 C 206.40000,83.008000 206.90000,82.908000 207.40000,82.608000 C 207.70000,82.608000 207.90000,82.208000 208.30000,81.608000 z "
           id="path2482"
           style="fill:url(#XMLID_61_)" />
      </g>
      <g
         id="g2484">
        <path
           i:knockout="Off"
           d="M 214.70000,75.508000 C 214.60000,75.408000 214.40000,75.008000 214.20000,74.608000 C 213.80000,74.108000 212.80000,73.008000 211.30000,71.408000 C 209.70000,69.808000 206.00000,67.808000 199.90000,65.408000 C 199.10000,66.108000 198.60000,67.108000 198.30000,68.608000 C 199.20000,68.708000 200.10000,69.008000 200.80000,69.408000 C 201.60000,69.808000 202.20000,70.108000 202.40000,70.308000 C 202.70000,70.408000 203.10000,70.608000 203.50000,70.808000 C 203.80000,71.008000 204.50000,71.408000 205.60000,72.008000 C 206.60000,72.508000 207.30000,73.308000 207.70000,74.508000 C 207.60000,74.608000 207.20000,74.608000 206.30000,74.608000 C 205.50000,74.608000 204.30000,74.508000 202.60000,74.108000 C 200.90000,73.708000 199.10000,73.108000 197.10000,72.208000 C 195.20000,71.308000 192.70000,70.008000 189.70000,68.308000 C 186.80000,66.608000 185.30000,65.508000 185.20000,65.008000 C 185.10000,64.608000 185.30000,64.508000 186.20000,64.608000 C 187.00000,64.708000 189.10000,65.208000 192.30000,66.108000 C 193.90000,66.508000 194.90000,66.908000 195.00000,67.108000 C 195.70000,66.608000 196.20000,66.008000 196.30000,65.108000 C 196.60000,64.208000 196.90000,63.708000 197.20000,63.808000 C 192.60000,62.208000 190.00000,61.408000 189.40000,61.308000 C 188.90000,61.208000 188.20000,61.008000 187.10000,60.808000 C 186.20000,60.608000 185.10000,60.408000 183.90000,60.108000 C 182.80000,59.908000 181.80000,60.008000 180.80000,60.208000 C 179.80000,60.508000 179.20000,60.908000 178.90000,61.308000 C 178.60000,61.708000 178.50000,62.208000 178.30000,62.708000 C 178.20000,63.108000 178.30000,63.808000 178.40000,64.608000 C 178.60000,65.508000 179.20000,66.208000 180.10000,66.908000 C 183.80000,70.108000 188.70000,73.008000 194.30000,75.508000 C 200.10000,77.908000 204.40000,79.208000 207.40000,79.508000 L 209.50000,79.608000 C 211.10000,79.708000 212.10000,79.708000 212.40000,79.508000 C 213.30000,79.008000 213.80000,78.708000 214.20000,78.408000 C 214.60000,78.008000 214.70000,77.508000 214.70000,76.808000 C 214.70000,76.108000 214.70000,75.708000 214.70000,75.508000 z M 213.30000,75.608000 C 213.50000,75.908000 213.60000,76.208000 213.60000,76.608000 C 213.20000,77.208000 212.80000,77.608000 212.50000,77.708000 C 212.00000,78.008000 211.40000,78.208000 210.80000,78.108000 C 209.30000,78.108000 207.80000,78.008000 206.60000,77.808000 L 204.30000,77.308000 C 203.60000,77.108000 202.60000,77.008000 201.30000,76.608000 C 200.40000,76.508000 199.40000,76.108000 198.20000,75.608000 L 194.70000,74.108000 C 193.20000,73.508000 192.20000,73.008000 191.80000,72.808000 C 191.30000,72.608000 191.10000,72.408000 191.00000,72.408000 C 187.90000,70.608000 185.80000,69.208000 184.70000,68.508000 L 183.10000,67.508000 C 181.70000,66.708000 181.60000,66.608000 182.70000,67.208000 L 181.90000,66.708000 C 180.70000,65.908000 179.80000,64.908000 179.40000,63.808000 C 179.10000,62.608000 179.50000,61.908000 180.70000,61.408000 C 181.30000,61.008000 182.30000,61.008000 183.30000,61.108000 C 185.10000,61.308000 186.90000,61.708000 188.80000,62.408000 L 195.60000,64.408000 L 194.90000,65.808000 L 189.30000,64.108000 C 186.70000,63.408000 184.90000,63.208000 184.20000,63.508000 C 183.30000,63.708000 182.90000,64.108000 183.30000,64.908000 C 183.60000,65.608000 184.40000,66.308000 185.90000,67.108000 C 186.60000,67.508000 187.90000,68.208000 189.70000,69.408000 L 194.90000,72.208000 C 195.70000,72.608000 196.70000,73.108000 197.90000,73.608000 L 203.30000,75.508000 L 207.10000,76.008000 C 207.80000,76.208000 208.30000,76.108000 208.70000,75.708000 C 209.70000,75.308000 209.70000,74.608000 208.70000,73.308000 C 207.60000,72.108000 206.30000,71.108000 204.80000,70.608000 L 199.50000,67.708000 L 200.30000,66.608000 L 203.50000,68.208000 C 208.10000,70.008000 211.20000,72.208000 212.90000,74.908000 L 213.30000,75.608000 z "
           id="path2486" />
        <linearGradient
           id="linearGradient4460"
           gradientUnits="userSpaceOnUse"
           x1="-3667.3906"
           y1="-23573.730"
           x2="-2028.9906"
           y2="-23573.730"
           gradientTransform="matrix(2.750000e-2,2.070000e-2,-4.800000e-3,6.300000e-3,161.4600,276.9943)">
          <stop
             offset="0.0275"
             style="stop-color:#4A4A4A"
             id="stop4462" />
          <stop
             offset="0.5412"
             style="stop-color:#FFFFFF"
             id="stop4464" />
          <stop
             offset="1"
             style="stop-color:#000000"
             id="stop4466" />
          <a:midPointStop
             offset="0.0275"
             style="stop-color:#4A4A4A" />
          <a:midPointStop
             offset="0.5"
             style="stop-color:#4A4A4A" />
          <a:midPointStop
             offset="0.5412"
             style="stop-color:#FFFFFF" />
          <a:midPointStop
             offset="0.5"
             style="stop-color:#FFFFFF" />
          <a:midPointStop
             offset="1"
             style="stop-color:#000000" />
        </linearGradient>
        <path
           i:knockout="Off"
           d="M 213.60000,76.608000 C 213.60000,76.208000 213.50000,75.908000 213.30000,75.608000 L 212.90000,74.908000 C 211.20000,72.208000 208.10000,70.008000 203.50000,68.208000 L 200.30000,66.608000 L 199.50000,67.708000 L 204.80000,70.608000 C 206.30000,71.108000 207.60000,72.108000 208.70000,73.308000 C 209.70000,74.608000 209.70000,75.308000 208.70000,75.708000 C 208.30000,76.108000 207.80000,76.208000 207.10000,76.008000 L 203.30000,75.508000 L 197.90000,73.608000 C 196.70000,73.108000 195.70000,72.608000 194.90000,72.208000 L 189.70000,69.408000 C 187.90000,68.208000 186.60000,67.508000 185.90000,67.108000 C 184.40000,66.308000 183.60000,65.608000 183.30000,64.908000 C 182.90000,64.108000 183.30000,63.708000 184.20000,63.508000 C 184.90000,63.208000 186.70000,63.408000 189.30000,64.108000 L 194.90000,65.808000 L 195.60000,64.408000 L 188.80000,62.408000 C 186.90000,61.708000 185.10000,61.308000 183.30000,61.108000 C 182.30000,61.008000 181.30000,61.008000 180.70000,61.408000 C 179.50000,61.908000 179.10000,62.608000 179.40000,63.808000 C 179.80000,64.908000 180.70000,65.908000 181.90000,66.708000 L 182.70000,67.208000 C 181.60000,66.608000 181.70000,66.708000 183.10000,67.508000 L 184.70000,68.508000 C 185.80000,69.208000 187.90000,70.608000 191.00000,72.408000 C 191.10000,72.408000 191.30000,72.608000 191.80000,72.808000 C 192.20000,73.008000 193.20000,73.508000 194.70000,74.108000 L 198.20000,75.608000 C 199.40000,76.108000 200.40000,76.508000 201.30000,76.608000 C 202.60000,77.008000 203.60000,77.108000 204.30000,77.308000 L 206.60000,77.808000 C 207.80000,78.008000 209.30000,78.108000 210.80000,78.108000 C 211.40000,78.208000 212.00000,78.008000 212.50000,77.708000 C 212.80000,77.608000 213.20000,77.208000 213.60000,76.608000 z "
           id="path2495"
           style="fill:url(#XMLID_62_)" />
      </g>
      <g
         id="g2973">
        <path
           i:knockout="Off"
           d="M 217.40000,47.408000 C 218.00000,44.608000 217.10000,42.008000 214.70000,39.808000 C 212.40000,37.608000 210.30000,36.608000 208.30000,36.808000 C 206.30000,37.008000 204.40000,37.608000 202.70000,38.308000 C 200.80000,39.008000 199.40000,40.808000 198.30000,43.608000 C 197.30000,46.408000 197.70000,49.108000 199.70000,51.608000 C 201.60000,54.208000 204.10000,55.408000 207.10000,55.108000 C 210.20000,54.708000 211.90000,54.608000 212.60000,54.508000 C 213.10000,54.508000 213.90000,54.008000 214.90000,53.008000 C 216.00000,52.008000 216.80000,50.108000 217.40000,47.408000 z M 209.00000,38.308000 C 209.60000,38.508000 210.10000,38.608000 210.70000,38.708000 L 212.20000,39.408000 C 215.30000,41.408000 216.80000,44.008000 216.60000,47.108000 C 216.60000,47.208000 216.40000,47.908000 216.10000,48.908000 C 215.80000,49.708000 215.60000,50.208000 215.40000,50.508000 C 214.30000,52.108000 213.00000,53.208000 211.50000,53.608000 C 209.30000,54.008000 207.60000,54.108000 206.60000,54.008000 C 205.00000,54.008000 203.60000,53.608000 202.50000,52.908000 C 201.60000,52.208000 200.60000,51.008000 199.40000,49.208000 C 199.20000,48.708000 198.90000,48.208000 198.80000,47.608000 C 198.70000,47.008000 198.70000,46.408000 198.80000,45.708000 C 199.00000,45.008000 199.20000,44.408000 199.40000,43.708000 L 200.40000,42.008000 C 200.70000,41.608000 201.10000,41.108000 201.50000,40.708000 C 201.90000,40.208000 202.30000,39.908000 202.80000,39.608000 L 204.20000,38.708000 L 205.70000,38.308000 C 207.30000,38.008000 208.40000,38.008000 209.00000,38.308000 z "
           id="path2975" />
        <radialGradient
           id="radialGradient4471"
           cx="1115.2148"
           cy="-4111.3169"
           r="819.20001"
           fx="1115.2148"
           fy="-4111.3169"
           gradientTransform="matrix(6.810000e-2,-2.100000e-2,9.100000e-3,4.020000e-2,160.8859,238.5417)"
           gradientUnits="userSpaceOnUse">
          <stop
             offset="0"
             style="stop-color:#008837"
             id="stop4473" />
          <stop
             offset="1"
             style="stop-color:#000000"
             id="stop4475" />
          <a:midPointStop
             offset="0"
             style="stop-color:#008837" />
          <a:midPointStop
             offset="0.5"
             style="stop-color:#008837" />
          <a:midPointStop
             offset="1"
             style="stop-color:#000000" />
        </radialGradient>
        <path
           i:knockout="Off"
           d="M 210.70000,38.708000 C 210.10000,38.608000 209.60000,38.508000 209.00000,38.308000 C 208.40000,38.008000 207.30000,38.008000 205.70000,38.308000 L 204.20000,38.708000 L 202.80000,39.608000 C 202.30000,39.908000 201.90000,40.208000 201.50000,40.708000 C 201.10000,41.108000 200.70000,41.608000 200.40000,42.008000 L 199.40000,43.708000 C 199.20000,44.408000 199.00000,45.008000 198.80000,45.708000 C 198.70000,46.408000 198.70000,47.008000 198.80000,47.608000 C 198.90000,48.208000 199.20000,48.708000 199.40000,49.208000 C 200.60000,51.008000 201.60000,52.208000 202.50000,52.908000 C 203.60000,53.608000 205.00000,54.008000 206.60000,54.008000 C 207.60000,54.108000 209.30000,54.008000 211.50000,53.608000 C 213.00000,53.208000 214.30000,52.108000 215.40000,50.508000 C 215.60000,50.208000 215.80000,49.708000 216.10000,48.908000 C 216.40000,47.908000 216.60000,47.208000 216.60000,47.108000 C 216.80000,44.008000 215.30000,41.408000 212.20000,39.408000 L 210.70000,38.708000 z "
           id="path2982"
           style="fill:url(#XMLID_97_)" />
      </g>
    </g>
  </g>
</svg>
