<?xml version="1.0" encoding="UTF-8" standalone="no"?>
<!-- Created with Inkscape (http://www.inkscape.org/) -->
<svg
   xmlns:i="http://ns.adobe.com/AdobeIllustrator/10.0/"
   xmlns:a="http://ns.adobe.com/AdobeSVGViewerExtensions/3.0/"
   xmlns:dc="http://purl.org/dc/elements/1.1/"
   xmlns:cc="http://web.resource.org/cc/"
   xmlns:rdf="http://www.w3.org/1999/02/22-rdf-syntax-ns#"
   xmlns:svg="http://www.w3.org/2000/svg"
   xmlns="http://www.w3.org/2000/svg"
   xmlns:sodipodi="http://inkscape.sourceforge.net/DTD/sodipodi-0.dtd"
   xmlns:inkscape="http://www.inkscape.org/namespaces/inkscape"
   width="100.00000pt"
   height="100.00000pt"
   id="svg2"
   sodipodi:version="0.32"
   inkscape:version="0.42"
   sodipodi:docbase="/home/zack/Desktop/dtlogos"
   sodipodi:docname="dogtail-head.svg">
  <defs
     id="defs4">
    <linearGradient
       id="XMLID_63_"
       gradientUnits="userSpaceOnUse"
       x1="41.803699"
       y1="23.916500"
       x2="1680.2037"
       y2="23.916500"
       gradientTransform="matrix(2.050000e-2,2.500000e-3,-6.000000e-4,4.700000e-3,21.16370,234.0289)">
      <stop
         offset="0.0275"
         style="stop-color:#4A4A4A"
         id="stop2502" />
      <stop
         offset="0.5412"
         style="stop-color:#FFFFFF"
         id="stop2504" />
      <stop
         offset="1"
         style="stop-color:#000000"
         id="stop2506" />
      <a:midPointStop
         offset="0.0275"
         style="stop-color:#4A4A4A" />
      <a:midPointStop
         offset="0.5"
         style="stop-color:#4A4A4A" />
      <a:midPointStop
         offset="0.5412"
         style="stop-color:#FFFFFF" />
      <a:midPointStop
         offset="0.5"
         style="stop-color:#FFFFFF" />
      <a:midPointStop
         offset="1"
         style="stop-color:#000000" />
    </linearGradient>
    <linearGradient
       gradientTransform="matrix(2.350000e-2,2.900000e-3,-7.000000e-4,5.400000e-3,21.13940,229.5353)"
       y2="-38513.504"
       x2="1248.4313"
       y1="-38513.504"
       x1="-389.96881"
       gradientUnits="userSpaceOnUse"
       id="XMLID_64_">
      <stop
         id="stop2515"
         style="stop-color:#4A4A4A"
         offset="0.0275" />
      <stop
         id="stop2517"
         style="stop-color:#FFFFFF"
         offset="0.5412" />
      <stop
         id="stop2519"
         style="stop-color:#000000"
         offset="1" />
      <a:midPointStop
         style="stop-color:#4A4A4A"
         offset="0.0275" />
      <a:midPointStop
         style="stop-color:#4A4A4A"
         offset="0.5" />
      <a:midPointStop
         style="stop-color:#FFFFFF"
         offset="0.5412" />
      <a:midPointStop
         style="stop-color:#FFFFFF"
         offset="0.5" />
      <a:midPointStop
         style="stop-color:#000000"
         offset="1" />
    </linearGradient>
    <radialGradient
       id="XMLID_96_"
       cx="1323.0430"
       cy="-5313.3013"
       r="819.20001"
       fx="1323.0430"
       fy="-5313.3013"
       gradientTransform="matrix(6.330000e-2,-1.680000e-2,8.500000e-3,3.210000e-2,10.88700,202.9904)"
       gradientUnits="userSpaceOnUse">
      <stop
         offset="0"
         style="stop-color:#008837"
         id="stop2967" />
      <stop
         offset="1"
         style="stop-color:#000000"
         id="stop2969" />
      <a:midPointStop
         offset="0"
         style="stop-color:#008837" />
      <a:midPointStop
         offset="0.5"
         style="stop-color:#008837" />
      <a:midPointStop
         offset="1"
         style="stop-color:#000000" />
    </radialGradient>
    <linearGradient
       gradientTransform="matrix(3.960000e-2,-1.970000e-2,1.890000e-2,3.780000e-2,36.87870,242.5071)"
       y2="-3377.9888"
       x2="3651.6226"
       y1="-3377.9888"
       x1="2013.2227"
       gradientUnits="userSpaceOnUse"
       id="XMLID_59_">
      <stop
         id="stop2456"
         style="stop-color:#FFFFFF"
         offset="0" />
      <stop
         id="stop2458"
         style="stop-color:#000000"
         offset="1" />
      <a:midPointStop
         style="stop-color:#FFFFFF"
         offset="0" />
      <a:midPointStop
         style="stop-color:#FFFFFF"
         offset="0.5" />
      <a:midPointStop
         style="stop-color:#000000"
         offset="1" />
    </linearGradient>
    <linearGradient
       gradientTransform="matrix(3.960000e-2,-1.970000e-2,1.890000e-2,3.780000e-2,36.87870,242.5071)"
       y2="-2710.3794"
       x2="3651.6226"
       y1="-2710.3794"
       x1="2013.2227"
       gradientUnits="userSpaceOnUse"
       id="XMLID_60_">
      <stop
         id="stop2463"
         style="stop-color:#FFFFFF"
         offset="0" />
      <stop
         id="stop2465"
         style="stop-color:#000000"
         offset="1" />
      <a:midPointStop
         style="stop-color:#FFFFFF"
         offset="0" />
      <a:midPointStop
         style="stop-color:#FFFFFF"
         offset="0.5" />
      <a:midPointStop
         style="stop-color:#000000"
         offset="1" />
    </linearGradient>
    <linearGradient
       gradientTransform="matrix(6.970000e-2,0.000000,0.000000,2.740000e-2,47.07010,253.6812)"
       y2="-7203.4263"
       x2="1309.2438"
       y1="-7203.4263"
       x1="-329.15619"
       gradientUnits="userSpaceOnUse"
       id="XMLID_65_">
      <stop
         id="stop2534"
         style="stop-color:#FFFFFF"
         offset="0" />
      <stop
         id="stop2536"
         style="stop-color:#000000"
         offset="1" />
      <a:midPointStop
         style="stop-color:#FFFFFF"
         offset="0" />
      <a:midPointStop
         style="stop-color:#FFFFFF"
         offset="0.5" />
      <a:midPointStop
         style="stop-color:#000000"
         offset="1" />
    </linearGradient>
    <linearGradient
       gradientTransform="matrix(8.500000e-3,-1.880000e-2,1.330000e-2,6.000000e-3,-5.852400,270.4716)"
       y2="-2914.9419"
       x2="10760.650"
       y1="-2914.9419"
       x1="9122.2500"
       gradientUnits="userSpaceOnUse"
       id="XMLID_98_">
      <stop
         id="stop2989"
         style="stop-color:#000000"
         offset="0.0275" />
      <stop
         id="stop2991"
         style="stop-color:#979797"
         offset="0.5412" />
      <stop
         id="stop2993"
         style="stop-color:#000000"
         offset="1" />
      <a:midPointStop
         style="stop-color:#000000"
         offset="0.0275" />
      <a:midPointStop
         style="stop-color:#000000"
         offset="0.5" />
      <a:midPointStop
         style="stop-color:#979797"
         offset="0.5412" />
      <a:midPointStop
         style="stop-color:#979797"
         offset="0.5" />
      <a:midPointStop
         style="stop-color:#000000"
         offset="1" />
    </linearGradient>
  </defs>
  <sodipodi:namedview
     id="base"
     pagecolor="#ffffff"
     bordercolor="#666666"
     borderopacity="1.0"
     inkscape:pageopacity="0.0"
     inkscape:pageshadow="2"
     inkscape:zoom="1.2187708"
     inkscape:cx="135.29150"
     inkscape:cy="69.758353"
     inkscape:document-units="px"
     inkscape:current-layer="layer1"
     inkscape:window-width="753"
     inkscape:window-height="513"
     inkscape:window-x="242"
     inkscape:window-y="109" />
  <metadata
     id="metadata7">
    <rdf:RDF>
      <cc:Work
         rdf:about="">
        <dc:format>image/svg+xml</dc:format>
        <dc:type
           rdf:resource="http://purl.org/dc/dcmitype/StillImage" />
        <cc:license
           rdf:resource="http://creativecommons.org/licenses/GPL/2.0/" />
        <dc:creator>
          <cc:Agent>
            <dc:title>Máirín Duffy</dc:title>
          </cc:Agent>
        </dc:creator>
        <dc:rights>
          <cc:Agent>
            <dc:title>Red Hat, Inc.</dc:title>
          </cc:Agent>
        </dc:rights>
        <dc:title>dogtail head</dc:title>
      </cc:Work>
      <cc:License
         rdf:about="http://creativecommons.org/licenses/GPL/2.0/">
        <cc:permits
           rdf:resource="http://web.resource.org/cc/Reproduction" />
        <cc:permits
           rdf:resource="http://web.resource.org/cc/Distribution" />
        <cc:requires
           rdf:resource="http://web.resource.org/cc/Notice" />
        <cc:permits
           rdf:resource="http://web.resource.org/cc/DerivativeWorks" />
        <cc:requires
           rdf:resource="http://web.resource.org/cc/ShareAlike" />
        <cc:requires
           rdf:resource="http://web.resource.org/cc/SourceCode" />
      </cc:License>
    </rdf:RDF>
  </metadata>
  <g
     inkscape:label="Layer 1"
     inkscape:groupmode="layer"
     id="layer1">
    <g
       id="g1409"
       inkscape:label="Layer 1"
       transform="translate(-291.4285,-146.5714)">
      <g
         inkscape:export-ydpi="104.78611"
         inkscape:export-xdpi="104.78611"
         inkscape:export-filename="/home/zack/Desktop/dogtail-head-logo-128.png"
         id="g4246"
         transform="translate(292.8166,152.2012)">
        <g
           id="g4195">
          <g
             id="g2388">
            <path
               i:knockout="Off"
               d="M 58.500000,8.7080000 C 58.500000,8.7080000 58.500000,8.7080000 58.300000,8.8080000 C 57.800000,8.5080000 57.300000,8.4080000 56.500000,8.2080000 C 56.400000,8.1080000 56.300000,8.1080000 56.100000,8.1080000 C 55.500000,7.6080000 55.000000,7.4080000 54.300000,7.4080000 C 54.200000,7.4080000 54.000000,7.4080000 54.000000,7.5080000 C 53.800000,7.5080000 53.800000,7.5080000 53.800000,7.6080000 L 53.800000,7.6080000 L 53.800000,7.8080000 C 54.000000,7.9080000 54.000000,7.9080000 54.000000,7.9080000 C 54.100000,8.0080000 54.300000,8.0080000 54.300000,8.0080000 L 54.300000,8.1080000 C 54.500000,9.9080000 54.700000,11.708000 55.000000,13.508000 C 55.200000,15.208000 55.300000,17.008000 55.500000,18.708000 C 55.500000,19.608000 55.500000,20.308000 55.700000,21.008000 C 56.100000,22.908000 56.300000,24.608000 56.400000,26.508000 C 56.600000,28.208000 56.600000,30.108000 56.400000,32.008000 C 56.300000,33.708000 56.300000,35.608000 56.300000,37.308000 C 56.300000,38.208000 56.300000,39.008000 56.300000,40.008000 C 56.300000,41.808000 56.500000,43.608000 56.800000,45.408000 C 57.000000,47.108000 57.400000,49.008000 57.700000,50.808000 C 57.800000,51.208000 58.000000,51.608000 58.300000,51.908000 C 58.300000,52.008000 58.500000,52.008000 58.500000,52.108000 C 58.600000,52.008000 58.600000,52.008000 58.700000,52.008000 C 58.700000,52.008000 58.800000,52.008000 58.900000,51.908000 C 59.500000,51.208000 60.200000,50.908000 61.100000,50.608000 C 61.500000,50.508000 62.000000,50.308000 62.300000,50.008000 C 62.500000,49.908000 62.700000,49.708000 62.700000,49.708000 C 62.700000,49.608000 62.700000,49.608000 62.800000,49.608000 L 62.800000,49.508000 C 62.700000,49.208000 62.700000,49.008000 62.600000,48.908000 C 62.000000,47.008000 61.500000,45.408000 61.100000,43.608000 C 60.700000,41.808000 60.300000,40.008000 60.100000,38.208000 C 60.000000,36.508000 59.900000,34.608000 60.000000,32.808000 C 60.000000,31.008000 60.000000,29.108000 60.000000,27.408000 C 60.000000,25.608000 60.000000,23.708000 59.900000,21.908000 C 59.800000,20.108000 59.700000,18.208000 59.500000,16.508000 C 59.300000,14.708000 59.000000,12.908000 59.000000,11.008000 C 59.000000,10.608000 59.200000,10.108000 59.300000,9.7080000 C 59.300000,9.2080000 59.000000,8.9080000 58.700000,8.7080000 C 58.600000,8.7080000 58.600000,8.7080000 58.500000,8.7080000 z M 58.200000,10.408000 L 58.300000,10.508000 C 58.200000,11.108000 58.200000,11.908000 58.300000,12.608000 C 58.300000,14.408000 58.300000,16.108000 58.500000,17.908000 C 58.700000,19.608000 58.800000,21.508000 58.900000,23.208000 C 59.000000,25.108000 59.000000,27.008000 59.000000,28.708000 C 59.000000,30.608000 59.000000,32.408000 59.000000,34.208000 C 59.000000,36.008000 59.000000,37.808000 59.300000,39.608000 C 59.500000,41.408000 59.800000,43.208000 60.300000,45.008000 C 60.500000,45.608000 60.700000,46.408000 60.800000,47.008000 C 61.000000,47.808000 61.300000,48.508000 61.900000,49.208000 L 61.800000,49.208000 C 61.800000,49.208000 61.800000,49.208000 61.800000,49.308000 C 61.800000,49.408000 61.800000,49.408000 61.800000,49.508000 C 60.900000,49.708000 60.000000,50.108000 59.300000,50.608000 C 59.200000,50.708000 59.000000,50.908000 58.800000,51.008000 C 58.800000,50.908000 58.800000,50.608000 58.700000,50.508000 C 58.700000,49.908000 58.500000,49.308000 58.300000,48.708000 C 58.000000,47.008000 57.700000,45.108000 57.500000,43.408000 C 57.400000,42.008000 57.300000,40.708000 57.300000,39.408000 C 57.200000,38.208000 57.000000,37.108000 57.200000,36.008000 C 57.300000,34.108000 57.300000,32.308000 57.400000,30.508000 C 57.500000,28.708000 57.400000,26.908000 57.200000,25.008000 C 56.900000,23.208000 56.700000,21.508000 56.300000,19.608000 C 56.300000,19.208000 56.200000,18.708000 56.100000,18.108000 C 55.800000,16.408000 55.600000,14.608000 55.500000,12.808000 C 55.400000,11.408000 55.200000,10.008000 55.000000,8.6080000 C 55.200000,8.8080000 55.400000,8.9080000 55.700000,8.8080000 C 55.800000,8.9080000 55.800000,8.9080000 55.800000,8.9080000 C 56.100000,9.0080000 56.300000,9.0080000 56.500000,9.1080000 C 56.600000,9.2080000 56.700000,9.4080000 56.700000,9.5080000 C 57.000000,9.8080000 57.400000,10.008000 58.000000,10.108000 C 58.000000,10.308000 58.100000,10.408000 58.200000,10.408000 z "
               id="path2390" />
            <path
               i:knockout="Off"
               d="M 58.300000,10.508000 L 58.200000,10.408000 C 58.100000,10.408000 58.000000,10.308000 58.000000,10.108000 C 57.400000,10.008000 57.000000,9.8080000 56.700000,9.5080000 C 56.700000,9.4080000 56.600000,9.2080000 56.500000,9.1080000 C 56.300000,9.0080000 56.100000,9.0080000 55.800000,8.9080000 C 55.800000,8.9080000 55.800000,8.9080000 55.700000,8.8080000 C 55.400000,8.9080000 55.200000,8.8080000 55.000000,8.6080000 C 55.200000,10.008000 55.400000,11.408000 55.500000,12.808000 C 55.600000,14.608000 55.800000,16.408000 56.100000,18.108000 C 56.200000,18.708000 56.300000,19.208000 56.300000,19.608000 C 56.700000,21.508000 56.900000,23.208000 57.200000,25.008000 C 57.400000,26.908000 57.500000,28.708000 57.400000,30.508000 C 57.300000,32.308000 57.300000,34.108000 57.200000,36.008000 C 57.000000,37.108000 57.200000,38.208000 57.300000,39.408000 C 57.300000,40.708000 57.400000,42.008000 57.500000,43.408000 C 57.700000,45.108000 58.000000,47.008000 58.300000,48.708000 C 58.500000,49.308000 58.700000,49.908000 58.700000,50.508000 C 58.800000,50.608000 58.800000,50.908000 58.800000,51.008000 C 59.000000,50.908000 59.200000,50.708000 59.300000,50.608000 C 60.000000,50.108000 60.900000,49.708000 61.800000,49.508000 C 61.800000,49.408000 61.800000,49.408000 61.800000,49.308000 C 61.800000,49.208000 61.800000,49.208000 61.800000,49.208000 L 61.900000,49.208000 C 61.300000,48.508000 61.000000,47.808000 60.800000,47.008000 C 60.700000,46.408000 60.500000,45.608000 60.300000,45.008000 C 59.800000,43.208000 59.500000,41.408000 59.300000,39.608000 C 59.000000,37.808000 59.000000,36.008000 59.000000,34.208000 C 59.000000,32.408000 59.000000,30.608000 59.000000,28.708000 C 59.000000,27.008000 59.000000,25.108000 58.900000,23.208000 C 58.800000,21.508000 58.700000,19.608000 58.500000,17.908000 C 58.300000,16.108000 58.300000,14.408000 58.300000,12.608000 C 58.200000,11.908000 58.200000,11.108000 58.300000,10.508000 z "
               id="path2392"
               style="fill:#333333" />
          </g>
          <g
             id="g2497">
            <path
               i:knockout="Off"
               d="M 69.700000,24.708000 C 69.600000,24.608000 69.500000,24.608000 69.200000,24.408000 C 68.800000,24.208000 68.000000,24.008000 66.700000,23.608000 C 65.400000,23.208000 62.800000,23.308000 59.000000,23.908000 C 58.800000,24.508000 58.800000,25.208000 59.200000,26.008000 C 59.600000,25.908000 60.200000,25.708000 60.700000,25.708000 C 61.200000,25.608000 61.500000,25.608000 61.800000,25.608000 C 62.000000,25.608000 62.300000,25.608000 62.500000,25.608000 C 62.800000,25.608000 63.300000,25.608000 63.900000,25.608000 C 64.500000,25.608000 65.200000,25.808000 65.700000,26.308000 C 65.700000,26.408000 65.500000,26.508000 65.200000,26.708000 C 64.700000,27.008000 64.000000,27.308000 63.000000,27.608000 C 62.000000,27.908000 60.900000,28.108000 59.700000,28.208000 C 58.300000,28.408000 56.700000,28.408000 54.700000,28.408000 C 52.600000,28.408000 51.500000,28.408000 51.300000,28.108000 C 51.100000,28.008000 51.200000,27.708000 51.700000,27.608000 C 52.100000,27.408000 53.300000,27.008000 55.300000,26.508000 C 56.300000,26.208000 56.800000,26.108000 57.000000,26.208000 C 57.200000,25.808000 57.300000,25.308000 57.100000,24.708000 C 56.900000,24.208000 57.000000,24.008000 57.100000,23.908000 C 54.300000,24.408000 52.700000,24.708000 52.300000,24.908000 C 52.100000,25.008000 51.700000,25.108000 51.000000,25.408000 C 50.400000,25.508000 49.800000,25.708000 49.200000,25.908000 C 48.500000,26.108000 48.000000,26.508000 47.500000,27.008000 C 47.100000,27.408000 46.900000,27.708000 46.900000,28.008000 C 46.800000,28.408000 47.000000,28.608000 47.000000,29.008000 C 47.000000,29.208000 47.300000,29.608000 47.700000,30.008000 C 48.000000,30.308000 48.500000,30.508000 49.200000,30.608000 C 52.100000,31.108000 55.500000,31.108000 59.200000,30.708000 C 62.800000,30.408000 65.500000,29.708000 67.200000,29.008000 L 68.300000,28.408000 C 69.200000,28.008000 69.600000,27.608000 69.700000,27.508000 C 70.000000,27.008000 70.300000,26.608000 70.300000,26.408000 C 70.400000,26.008000 70.300000,25.708000 70.200000,25.408000 C 69.900000,25.008000 69.800000,24.808000 69.700000,24.708000 z M 69.000000,25.108000 C 69.300000,25.308000 69.300000,25.408000 69.500000,25.608000 C 69.500000,26.008000 69.400000,26.408000 69.300000,26.508000 C 69.100000,26.908000 68.800000,27.008000 68.500000,27.208000 C 67.700000,27.708000 67.000000,28.008000 66.200000,28.308000 L 64.800000,28.708000 C 64.400000,28.908000 63.800000,29.108000 63.200000,29.308000 C 62.600000,29.508000 62.000000,29.608000 61.200000,29.708000 L 58.900000,30.008000 C 58.000000,30.108000 57.300000,30.108000 57.000000,30.108000 C 56.700000,30.108000 56.500000,30.108000 56.500000,30.108000 C 54.300000,30.108000 52.800000,30.108000 52.000000,30.008000 L 50.900000,30.008000 C 50.000000,30.008000 49.800000,30.008000 50.700000,30.008000 L 50.100000,30.008000 C 49.200000,29.908000 48.500000,29.608000 47.900000,29.108000 C 47.400000,28.708000 47.300000,28.208000 47.800000,27.608000 C 48.100000,27.208000 48.600000,26.908000 49.200000,26.608000 C 50.100000,26.208000 51.200000,25.908000 52.400000,25.608000 L 56.500000,24.608000 L 56.500000,25.608000 L 53.100000,26.408000 C 51.500000,26.808000 50.600000,27.208000 50.300000,27.608000 C 49.800000,28.008000 49.800000,28.408000 50.300000,28.608000 C 50.600000,28.908000 51.300000,29.008000 52.300000,29.008000 C 52.700000,29.008000 53.700000,29.008000 54.900000,29.008000 L 58.500000,29.008000 C 59.000000,28.908000 59.700000,28.908000 60.500000,28.708000 L 63.800000,28.008000 L 66.000000,27.208000 C 66.300000,27.108000 66.700000,27.008000 66.700000,26.608000 C 67.100000,26.108000 66.800000,25.708000 65.900000,25.408000 C 65.000000,25.008000 64.100000,25.008000 63.200000,25.008000 L 59.500000,25.208000 L 59.600000,24.408000 L 61.700000,24.208000 C 64.600000,23.808000 66.900000,24.008000 68.600000,24.908000 L 69.000000,25.108000 z "
               id="path2499" />
            <linearGradient
               id="linearGradient4361"
               gradientUnits="userSpaceOnUse"
               x1="41.803699"
               y1="23.916500"
               x2="1680.2037"
               y2="23.916500"
               gradientTransform="matrix(2.050000e-2,2.500000e-3,-6.000000e-4,4.700000e-3,21.16370,234.0289)">
              <stop
                 offset="0.0275"
                 style="stop-color:#4A4A4A"
                 id="stop4363" />
              <stop
                 offset="0.5412"
                 style="stop-color:#FFFFFF"
                 id="stop4365" />
              <stop
                 offset="1"
                 style="stop-color:#000000"
                 id="stop4367" />
              <a:midPointStop
                 offset="0.0275"
                 style="stop-color:#4A4A4A" />
              <a:midPointStop
                 offset="0.5"
                 style="stop-color:#4A4A4A" />
              <a:midPointStop
                 offset="0.5412"
                 style="stop-color:#FFFFFF" />
              <a:midPointStop
                 offset="0.5"
                 style="stop-color:#FFFFFF" />
              <a:midPointStop
                 offset="1"
                 style="stop-color:#000000" />
            </linearGradient>
            <path
               i:knockout="Off"
               d="M 69.500000,25.608000 C 69.300000,25.408000 69.300000,25.308000 69.000000,25.108000 L 68.600000,24.908000 C 66.900000,24.008000 64.600000,23.808000 61.700000,24.208000 L 59.600000,24.408000 L 59.500000,25.208000 L 63.200000,25.008000 C 64.100000,25.008000 65.000000,25.008000 65.900000,25.408000 C 66.800000,25.708000 67.100000,26.108000 66.700000,26.608000 C 66.700000,27.008000 66.300000,27.108000 66.000000,27.208000 L 63.800000,28.008000 L 60.500000,28.708000 C 59.700000,28.908000 59.000000,28.908000 58.500000,29.008000 L 54.900000,29.008000 C 53.700000,29.008000 52.700000,29.008000 52.300000,29.008000 C 51.300000,29.008000 50.600000,28.908000 50.300000,28.608000 C 49.800000,28.408000 49.800000,28.008000 50.300000,27.608000 C 50.600000,27.208000 51.500000,26.808000 53.100000,26.408000 L 56.500000,25.608000 L 56.500000,24.608000 L 52.400000,25.608000 C 51.200000,25.908000 50.100000,26.208000 49.200000,26.608000 C 48.600000,26.908000 48.100000,27.208000 47.800000,27.608000 C 47.300000,28.208000 47.400000,28.708000 47.900000,29.108000 C 48.500000,29.608000 49.200000,29.908000 50.100000,30.008000 L 50.700000,30.008000 C 49.800000,30.008000 50.000000,30.008000 50.900000,30.008000 L 52.000000,30.008000 C 52.800000,30.108000 54.300000,30.108000 56.500000,30.108000 C 56.500000,30.108000 56.700000,30.108000 57.000000,30.108000 C 57.300000,30.108000 58.000000,30.108000 58.900000,30.008000 L 61.200000,29.708000 C 62.000000,29.608000 62.600000,29.508000 63.200000,29.308000 C 63.800000,29.108000 64.400000,28.908000 64.800000,28.708000 L 66.200000,28.308000 C 67.000000,28.008000 67.700000,27.708000 68.500000,27.208000 C 68.800000,27.008000 69.100000,26.908000 69.300000,26.508000 C 69.400000,26.408000 69.500000,26.008000 69.500000,25.608000 z "
               id="path2508"
               style="fill:url(#XMLID_63_)" />
          </g>
          <path
             id="path2512"
             d="M 71.300000,20.108000 C 71.200000,20.008000 71.000000,19.908000 70.700000,19.708000 C 70.300000,19.508000 69.300000,19.208000 67.800000,18.808000 C 66.400000,18.408000 63.500000,18.508000 59.000000,19.108000 C 58.800000,19.808000 58.800000,20.608000 59.200000,21.608000 C 59.700000,21.408000 60.300000,21.208000 60.900000,21.208000 C 61.500000,21.108000 62.000000,21.108000 62.300000,21.108000 C 62.500000,21.108000 62.700000,21.108000 63.000000,21.108000 C 63.300000,21.108000 63.800000,21.108000 64.600000,21.108000 C 65.400000,21.008000 66.100000,21.308000 66.700000,21.908000 C 66.700000,22.008000 66.500000,22.108000 66.000000,22.508000 C 65.500000,22.708000 64.700000,23.008000 63.600000,23.408000 C 62.500000,23.708000 61.200000,24.008000 59.700000,24.108000 C 58.300000,24.208000 56.300000,24.408000 54.000000,24.308000 C 51.700000,24.208000 50.300000,24.208000 50.100000,24.008000 C 49.900000,23.808000 50.000000,23.608000 50.500000,23.408000 C 51.000000,23.108000 52.500000,22.708000 54.700000,22.108000 C 55.800000,21.908000 56.500000,21.608000 56.700000,21.808000 C 57.000000,21.308000 57.000000,20.708000 56.700000,20.108000 C 56.700000,19.508000 56.700000,19.108000 56.800000,19.008000 C 53.500000,19.708000 51.700000,20.108000 51.500000,20.308000 C 51.000000,20.408000 50.500000,20.608000 49.800000,20.708000 C 49.200000,21.008000 48.400000,21.208000 47.700000,21.508000 C 47.000000,21.708000 46.400000,22.108000 45.800000,22.608000 C 45.300000,23.108000 45.100000,23.608000 45.100000,23.908000 C 45.100000,24.208000 45.200000,24.608000 45.200000,24.908000 C 45.300000,25.208000 45.500000,25.608000 46.000000,26.008000 C 46.300000,26.508000 47.000000,26.708000 47.700000,26.908000 C 51.000000,27.508000 54.900000,27.508000 59.200000,27.008000 C 63.400000,26.608000 66.500000,25.908000 68.300000,24.908000 L 69.600000,24.308000 C 70.700000,23.808000 71.200000,23.408000 71.300000,23.208000 C 71.700000,22.608000 71.900000,22.308000 72.000000,22.008000 C 72.100000,21.608000 72.000000,21.208000 71.700000,20.808000 C 71.500000,20.408000 71.400000,20.108000 71.300000,20.108000 z M 70.500000,20.608000 C 70.700000,20.708000 70.900000,20.908000 71.000000,21.008000 C 71.000000,21.608000 70.900000,22.008000 70.800000,22.108000 C 70.500000,22.508000 70.300000,22.808000 69.800000,23.008000 C 69.000000,23.508000 68.100000,23.908000 67.300000,24.208000 L 65.700000,24.608000 C 65.200000,24.908000 64.600000,25.108000 63.700000,25.408000 C 63.100000,25.608000 62.400000,25.708000 61.500000,25.808000 L 58.900000,26.108000 C 57.700000,26.208000 57.000000,26.208000 56.700000,26.308000 C 56.300000,26.308000 56.200000,26.408000 56.100000,26.408000 C 53.700000,26.308000 52.000000,26.208000 51.000000,26.208000 L 49.700000,26.108000 C 48.600000,26.208000 48.500000,26.108000 49.400000,26.108000 L 48.800000,26.108000 C 47.700000,26.008000 46.800000,25.708000 46.300000,25.208000 C 45.700000,24.608000 45.700000,24.008000 46.200000,23.308000 C 46.500000,22.908000 47.000000,22.608000 47.700000,22.208000 C 48.700000,21.808000 50.000000,21.408000 51.400000,21.108000 L 56.200000,20.008000 L 56.200000,21.008000 L 52.300000,22.008000 C 50.500000,22.508000 49.300000,23.008000 49.000000,23.408000 C 48.500000,23.908000 48.500000,24.208000 49.000000,24.508000 C 49.300000,24.808000 50.200000,25.008000 51.300000,25.008000 C 51.800000,25.008000 52.800000,24.908000 54.300000,25.008000 L 58.300000,24.908000 C 59.000000,24.908000 59.800000,24.808000 60.700000,24.708000 L 64.500000,23.908000 L 67.000000,23.008000 C 67.500000,22.908000 67.700000,22.608000 67.900000,22.208000 C 68.300000,21.608000 68.000000,21.208000 67.000000,20.808000 C 65.900000,20.508000 64.800000,20.308000 63.700000,20.508000 L 59.500000,20.608000 L 59.700000,19.608000 L 62.100000,19.508000 C 65.500000,19.008000 68.000000,19.308000 70.000000,20.308000 L 70.500000,20.608000 z "
             i:knockout="Off" />
          <path
             style="fill:url(#XMLID_64_)"
             id="path2521"
             d="M 71.000000,21.008000 C 70.900000,20.908000 70.700000,20.708000 70.500000,20.608000 L 70.000000,20.308000 C 68.000000,19.308000 65.500000,19.008000 62.100000,19.508000 L 59.700000,19.608000 L 59.500000,20.608000 L 63.700000,20.508000 C 64.800000,20.308000 65.900000,20.508000 67.000000,20.808000 C 68.000000,21.208000 68.300000,21.608000 67.900000,22.208000 C 67.700000,22.608000 67.500000,22.908000 67.000000,23.008000 L 64.500000,23.908000 L 60.700000,24.708000 C 59.800000,24.808000 59.000000,24.908000 58.300000,24.908000 L 54.300000,25.008000 C 52.800000,24.908000 51.800000,25.008000 51.300000,25.008000 C 50.200000,25.008000 49.300000,24.808000 49.000000,24.508000 C 48.500000,24.208000 48.500000,23.908000 49.000000,23.408000 C 49.300000,23.008000 50.500000,22.508000 52.300000,22.008000 L 56.200000,21.008000 L 56.200000,20.008000 L 51.400000,21.108000 C 50.000000,21.408000 48.700000,21.808000 47.700000,22.208000 C 47.000000,22.608000 46.500000,22.908000 46.200000,23.308000 C 45.700000,24.008000 45.700000,24.608000 46.300000,25.208000 C 46.800000,25.708000 47.700000,26.008000 48.800000,26.108000 L 49.400000,26.108000 C 48.500000,26.108000 48.600000,26.208000 49.700000,26.108000 L 51.000000,26.208000 C 52.000000,26.208000 53.700000,26.308000 56.100000,26.408000 C 56.200000,26.408000 56.300000,26.308000 56.700000,26.308000 C 57.000000,26.208000 57.700000,26.208000 58.900000,26.108000 L 61.500000,25.808000 C 62.400000,25.708000 63.100000,25.608000 63.700000,25.408000 C 64.600000,25.108000 65.200000,24.908000 65.700000,24.608000 L 67.300000,24.208000 C 68.100000,23.908000 69.000000,23.508000 69.800000,23.008000 C 70.300000,22.808000 70.500000,22.508000 70.800000,22.108000 C 70.900000,22.008000 71.000000,21.608000 71.000000,21.008000 z "
             i:knockout="Off" />
          <g
             id="g2962">
            <path
               i:knockout="Off"
               d="M 65.900000,8.5080000 C 66.500000,6.2080000 65.600000,4.2080000 63.500000,2.4080000 C 61.300000,0.70800000 59.300000,-0.092000000 57.500000,0.0080000000 C 55.600000,0.20800000 53.800000,0.70800000 52.200000,1.2080000 C 50.500000,1.9080000 49.200000,3.2080000 48.200000,5.5080000 C 47.200000,7.7080000 47.600000,9.9080000 49.400000,11.908000 C 51.200000,14.008000 53.500000,14.908000 56.300000,14.608000 C 59.200000,14.408000 60.800000,14.208000 61.400000,14.208000 C 61.900000,14.108000 62.700000,13.708000 63.700000,13.008000 C 64.600000,12.108000 65.300000,10.608000 65.900000,8.5080000 z M 58.100000,1.2080000 C 58.600000,1.4080000 59.200000,1.4080000 59.700000,1.6080000 L 61.100000,2.1080000 C 64.000000,3.7080000 65.300000,5.7080000 65.200000,8.2080000 C 65.200000,8.4080000 65.000000,8.9080000 64.700000,9.6080000 C 64.500000,10.408000 64.300000,10.808000 64.100000,11.008000 C 63.000000,12.308000 61.800000,13.108000 60.500000,13.508000 C 58.300000,13.708000 56.800000,13.908000 55.800000,13.708000 C 54.400000,13.708000 53.100000,13.508000 52.000000,12.908000 C 51.200000,12.408000 50.300000,11.408000 49.300000,10.008000 C 49.000000,9.6080000 48.700000,9.1080000 48.700000,8.7080000 C 48.500000,8.2080000 48.500000,7.7080000 48.700000,7.2080000 C 48.800000,6.6080000 49.000000,6.1080000 49.300000,5.6080000 L 50.100000,4.2080000 C 50.400000,3.9080000 50.700000,3.5080000 51.200000,3.2080000 C 51.500000,2.8080000 51.900000,2.5080000 52.300000,2.2080000 L 53.700000,1.6080000 L 55.100000,1.2080000 C 56.500000,1.0080000 57.500000,1.0080000 58.100000,1.2080000 z "
               id="path2964" />
            <radialGradient
               id="radialGradient4374"
               cx="1323.0430"
               cy="-5313.3013"
               r="819.20001"
               fx="1323.0430"
               fy="-5313.3013"
               gradientTransform="matrix(6.330000e-2,-1.680000e-2,8.500000e-3,3.210000e-2,10.88700,202.9904)"
               gradientUnits="userSpaceOnUse">
              <stop
                 offset="0"
                 style="stop-color:#008837"
                 id="stop4376" />
              <stop
                 offset="1"
                 style="stop-color:#000000"
                 id="stop4378" />
              <a:midPointStop
                 offset="0"
                 style="stop-color:#008837" />
              <a:midPointStop
                 offset="0.5"
                 style="stop-color:#008837" />
              <a:midPointStop
                 offset="1"
                 style="stop-color:#000000" />
            </radialGradient>
            <path
               i:knockout="Off"
               d="M 59.700000,1.6080000 C 59.200000,1.4080000 58.600000,1.4080000 58.100000,1.2080000 C 57.500000,1.0080000 56.500000,1.0080000 55.100000,1.2080000 L 53.700000,1.6080000 L 52.300000,2.2080000 C 51.900000,2.5080000 51.500000,2.8080000 51.200000,3.2080000 C 50.700000,3.5080000 50.400000,3.9080000 50.100000,4.2080000 L 49.300000,5.6080000 C 49.000000,6.1080000 48.800000,6.6080000 48.700000,7.2080000 C 48.500000,7.7080000 48.500000,8.2080000 48.700000,8.7080000 C 48.700000,9.1080000 49.000000,9.6080000 49.300000,10.008000 C 50.300000,11.408000 51.200000,12.408000 52.000000,12.908000 C 53.100000,13.508000 54.400000,13.708000 55.800000,13.708000 C 56.800000,13.908000 58.300000,13.708000 60.500000,13.508000 C 61.800000,13.108000 63.000000,12.308000 64.100000,11.008000 C 64.300000,10.808000 64.500000,10.408000 64.700000,9.6080000 C 65.000000,8.9080000 65.200000,8.4080000 65.200000,8.2080000 C 65.300000,5.7080000 64.000000,3.7080000 61.100000,2.1080000 L 59.700000,1.6080000 z "
               id="path2971"
               style="fill:url(#XMLID_96_)" />
          </g>
        </g>
        <g
           id="g4215">
          <g
             id="g2445">
            <g
               id="g2447">
              <g
                 id="g2449">
                <g
                   id="g2451">
                  <path
                     id="path2453"
                     d="M 73.800000,38.208000 C 72.200000,37.608000 70.300000,37.208000 68.300000,37.008000 C 67.100000,36.808000 65.200000,36.708000 62.400000,36.608000 C 61.300000,36.508000 60.200000,36.608000 59.000000,36.708000 C 53.300000,37.508000 48.300000,39.508000 43.700000,42.608000 C 43.600000,42.908000 43.300000,43.008000 43.100000,43.208000 C 38.700000,46.608000 35.000000,50.708000 32.000000,55.408000 C 30.000000,58.208000 28.400000,61.508000 27.000000,64.708000 C 25.500000,68.008000 23.100000,70.608000 20.200000,72.708000 L 6.5000000,82.308000 C 7.5000000,87.608000 9.0000000,92.908000 11.100000,98.008000 C 13.000000,102.60800 15.500000,106.60800 18.400000,109.60800 C 19.000000,110.40800 19.900000,111.10800 20.700000,111.70800 C 23.300000,113.50800 26.400000,114.40800 30.000000,114.60800 L 30.300000,114.60800 C 32.900000,114.40800 35.400000,113.70800 37.900000,112.60800 C 42.600000,110.60800 47.500000,108.70800 52.400000,107.00800 C 54.200000,106.40800 55.800000,105.80800 57.700000,105.20800 C 62.200000,103.70800 66.800000,102.50800 71.500000,101.50800 C 74.900000,100.90800 78.000000,99.608000 80.700000,97.508000 C 86.200000,93.208000 90.300000,87.908000 93.200000,81.508000 C 94.700000,77.608000 95.500000,73.708000 95.300000,69.808000 L 95.300000,68.708000 L 95.600000,68.008000 C 94.900000,61.408000 92.800000,55.608000 89.200000,50.208000 C 87.700000,48.108000 86.100000,46.308000 84.300000,44.908000 C 82.300000,43.108000 80.100000,41.608000 77.700000,40.008000 C 76.600000,39.308000 75.300000,38.708000 73.800000,38.208000 z M 67.800000,39.108000 C 70.000000,39.508000 72.100000,40.008000 74.200000,40.908000 C 75.300000,41.208000 76.200000,41.808000 77.200000,42.508000 C 79.100000,43.808000 81.000000,45.308000 82.700000,46.908000 C 83.200000,47.408000 83.700000,47.808000 84.300000,48.208000 C 86.200000,49.608000 87.600000,51.208000 88.700000,53.208000 C 88.700000,53.508000 89.000000,53.708000 89.200000,53.908000 L 92.700000,61.808000 L 93.700000,67.608000 L 93.300000,68.408000 L 93.300000,74.708000 L 92.000000,78.508000 C 91.500000,81.208000 89.400000,85.108000 85.500000,90.408000 L 86.300000,89.508000 L 84.800000,91.208000 L 85.500000,90.408000 C 80.400000,96.008000 75.800000,99.208000 71.700000,99.908000 C 61.600000,101.50800 54.000000,103.50800 48.900000,105.80800 C 46.700000,106.80800 44.500000,107.60800 42.700000,108.50800 C 40.300000,109.40800 38.300000,110.10800 36.700000,110.70800 C 32.300000,112.20800 28.600000,112.70800 25.600000,112.20800 C 24.900000,112.00800 24.000000,111.70800 23.300000,111.30800 C 21.100000,110.10800 19.000000,108.00800 17.000000,104.90800 C 14.200000,100.60800 12.300000,96.708000 11.300000,93.208000 C 10.300000,89.908000 9.5000000,86.608000 9.1000000,83.608000 C 14.000000,80.508000 18.600000,77.008000 23.100000,73.308000 C 24.500000,72.208000 25.700000,71.008000 26.700000,69.508000 C 28.800000,66.608000 30.600000,63.608000 32.000000,60.408000 C 34.000000,55.608000 37.000000,51.508000 40.600000,48.008000 C 43.500000,45.108000 46.900000,43.108000 50.500000,41.608000 C 51.900000,41.108000 53.400000,40.708000 54.900000,40.308000 C 59.100000,39.008000 63.300000,38.608000 67.500000,39.108000 C 67.500000,39.108000 67.700000,39.108000 67.800000,39.108000 z "
                     i:knockout="Off" />
                  <linearGradient
                     gradientTransform="matrix(3.960000e-2,-1.970000e-2,1.890000e-2,3.780000e-2,36.87870,242.5071)"
                     y2="-3377.9888"
                     x2="3651.6226"
                     y1="-3377.9888"
                     x1="2013.2227"
                     gradientUnits="userSpaceOnUse"
                     id="linearGradient4387">
                    <stop
                       id="stop4389"
                       style="stop-color:#FFFFFF"
                       offset="0" />
                    <stop
                       id="stop4391"
                       style="stop-color:#000000"
                       offset="1" />
                    <a:midPointStop
                       style="stop-color:#FFFFFF"
                       offset="0" />
                    <a:midPointStop
                       style="stop-color:#FFFFFF"
                       offset="0.5" />
                    <a:midPointStop
                       style="stop-color:#000000"
                       offset="1" />
                  </linearGradient>
                  <path
                     style="fill:url(#XMLID_59_)"
                     id="path2460"
                     d="M 74.200000,40.908000 C 72.100000,40.008000 70.000000,39.508000 67.800000,39.108000 C 67.700000,39.108000 67.500000,39.108000 67.500000,39.108000 C 63.300000,38.608000 59.100000,39.008000 54.900000,40.308000 C 53.400000,40.708000 51.900000,41.108000 50.500000,41.608000 C 46.900000,43.108000 43.500000,45.108000 40.600000,48.008000 C 37.000000,51.508000 34.000000,55.608000 32.000000,60.408000 C 30.600000,63.608000 28.800000,66.608000 26.700000,69.508000 C 25.700000,71.008000 24.500000,72.208000 23.100000,73.308000 C 18.600000,77.008000 14.000000,80.508000 9.1000000,83.608000 C 9.5000000,86.608000 10.300000,89.908000 11.300000,93.208000 C 12.300000,96.708000 14.200000,100.60800 17.000000,104.90800 C 19.000000,108.00800 21.100000,110.10800 23.300000,111.30800 C 24.000000,111.70800 24.900000,112.00800 25.600000,112.20800 C 28.600000,112.70800 32.300000,112.20800 36.700000,110.70800 C 38.300000,110.10800 40.300000,109.40800 42.700000,108.50800 C 44.500000,107.60800 46.700000,106.80800 48.900000,105.80800 C 54.000000,103.50800 61.600000,101.50800 71.700000,99.908000 C 75.800000,99.208000 80.400000,96.008000 85.500000,90.408000 C 89.400000,85.108000 91.500000,81.208000 92.000000,78.508000 L 93.300000,74.708000 L 93.300000,68.408000 L 93.700000,67.608000 L 92.700000,61.808000 L 89.200000,53.908000 C 89.000000,53.708000 88.700000,53.508000 88.700000,53.208000 C 87.600000,51.208000 86.200000,49.608000 84.300000,48.208000 C 83.700000,47.808000 83.200000,47.408000 82.700000,46.908000 C 81.000000,45.308000 79.100000,43.808000 77.200000,42.508000 C 76.200000,41.808000 75.300000,41.208000 74.200000,40.908000 z "
                     i:knockout="Off" />
                  <linearGradient
                     gradientTransform="matrix(3.960000e-2,-1.970000e-2,1.890000e-2,3.780000e-2,36.87870,242.5071)"
                     y2="-2710.3794"
                     x2="3651.6226"
                     y1="-2710.3794"
                     x1="2013.2227"
                     gradientUnits="userSpaceOnUse"
                     id="linearGradient4394">
                    <stop
                       id="stop4396"
                       style="stop-color:#FFFFFF"
                       offset="0" />
                    <stop
                       id="stop4398"
                       style="stop-color:#000000"
                       offset="1" />
                    <a:midPointStop
                       style="stop-color:#FFFFFF"
                       offset="0" />
                    <a:midPointStop
                       style="stop-color:#FFFFFF"
                       offset="0.5" />
                    <a:midPointStop
                       style="stop-color:#000000"
                       offset="1" />
                  </linearGradient>
                  <path
                     style="fill:url(#XMLID_60_)"
                     id="path2467"
                     d="M 85.500000,90.408000 L 84.800000,91.208000 L 86.300000,89.508000 L 85.500000,90.408000 z "
                     i:knockout="Off" />
                </g>
              </g>
            </g>
          </g>
          <g
             id="g2523">
            <g
               id="g2525">
              <g
                 id="g2527">
                <g
                   id="g2529">
                  <path
                     id="path2531"
                     d="M 78.700000,35.108000 C 74.100000,37.408000 70.900000,40.908000 69.000000,45.708000 C 68.200000,47.808000 67.300000,49.908000 66.500000,52.008000 L 66.400000,52.008000 C 66.000000,52.808000 65.600000,53.508000 65.000000,54.208000 C 65.000000,54.208000 65.000000,54.408000 64.900000,54.408000 C 64.500000,55.108000 64.300000,55.908000 64.200000,56.708000 C 64.000000,58.408000 64.100000,60.008000 64.700000,61.508000 C 64.800000,62.108000 65.100000,62.608000 65.300000,63.208000 C 65.700000,64.508000 66.500000,65.708000 67.300000,66.908000 C 67.400000,66.908000 67.400000,66.908000 67.400000,67.008000 C 68.300000,68.208000 69.200000,69.408000 70.200000,70.508000 C 70.200000,70.608000 70.300000,70.608000 70.300000,70.708000 C 70.700000,71.108000 70.900000,71.508000 71.200000,71.908000 C 71.200000,72.008000 71.200000,72.008000 71.200000,72.008000 C 71.300000,72.108000 71.300000,72.208000 71.400000,72.408000 C 72.300000,73.908000 73.500000,74.908000 75.000000,75.408000 C 75.100000,75.408000 75.100000,75.408000 75.200000,75.508000 C 77.600000,76.008000 80.000000,76.608000 82.400000,77.308000 C 84.400000,78.008000 86.300000,78.808000 88.400000,79.508000 C 93.500000,81.208000 98.800000,81.408000 104.20000,80.008000 C 105.90000,79.608000 107.60000,79.108000 109.20000,78.408000 C 111.80000,76.808000 113.50000,75.408000 114.30000,74.008000 C 114.80000,73.008000 115.40000,71.908000 116.00000,70.608000 C 116.60000,69.408000 116.60000,66.608000 115.90000,62.108000 C 115.30000,57.708000 113.70000,54.208000 111.20000,51.808000 L 93.700000,33.008000 C 93.200000,32.908000 92.700000,32.608000 92.300000,32.508000 C 92.100000,32.408000 91.800000,32.408000 91.700000,32.308000 C 91.600000,32.308000 91.600000,32.308000 91.600000,32.308000 L 91.500000,32.308000 C 89.400000,31.708000 87.300000,31.908000 85.100000,32.608000 C 83.600000,33.108000 82.200000,33.608000 80.700000,34.208000 C 80.000000,34.608000 79.300000,34.808000 78.700000,35.108000 z M 72.200000,43.608000 C 73.200000,42.008000 74.500000,40.608000 76.000000,39.508000 C 78.400000,37.808000 80.900000,36.408000 83.600000,35.408000 C 83.900000,35.308000 84.100000,35.208000 84.400000,35.108000 C 86.300000,34.508000 88.200000,34.008000 90.000000,33.708000 L 92.200000,34.008000 C 92.500000,34.408000 92.800000,34.708000 93.000000,35.108000 C 96.500000,39.608000 100.20000,43.608000 104.30000,47.508000 C 105.20000,48.408000 106.70000,50.008000 108.90000,52.008000 C 111.10000,54.208000 112.70000,57.308000 113.90000,61.208000 C 115.20000,65.208000 114.70000,69.008000 112.70000,72.808000 C 108.80000,76.908000 105.40000,78.908000 102.30000,78.908000 C 99.300000,78.908000 96.600000,78.808000 94.200000,78.508000 C 92.500000,78.108000 90.800000,77.708000 89.200000,77.208000 C 84.000000,75.808000 78.700000,74.408000 73.600000,72.808000 C 69.700000,68.508000 67.300000,65.108000 66.500000,62.708000 C 65.700000,60.308000 65.500000,58.608000 65.800000,57.708000 C 66.200000,56.808000 66.400000,55.908000 66.500000,55.008000 C 68.100000,51.108000 70.000000,47.408000 72.200000,43.608000 z "
                     i:knockout="Off" />
                  <linearGradient
                     gradientTransform="matrix(6.970000e-2,0.000000,0.000000,2.740000e-2,47.07010,253.6812)"
                     y2="-7203.4263"
                     x2="1309.2438"
                     y1="-7203.4263"
                     x1="-329.15619"
                     gradientUnits="userSpaceOnUse"
                     id="linearGradient4406">
                    <stop
                       id="stop4408"
                       style="stop-color:#FFFFFF"
                       offset="0" />
                    <stop
                       id="stop4410"
                       style="stop-color:#000000"
                       offset="1" />
                    <a:midPointStop
                       style="stop-color:#FFFFFF"
                       offset="0" />
                    <a:midPointStop
                       style="stop-color:#FFFFFF"
                       offset="0.5" />
                    <a:midPointStop
                       style="stop-color:#000000"
                       offset="1" />
                  </linearGradient>
                  <path
                     style="fill:url(#XMLID_65_)"
                     id="path2538"
                     d="M 76.000000,39.508000 C 74.500000,40.608000 73.200000,42.008000 72.200000,43.608000 C 70.000000,47.408000 68.100000,51.108000 66.500000,55.008000 C 66.400000,55.908000 66.200000,56.808000 65.800000,57.708000 C 65.500000,58.608000 65.700000,60.308000 66.500000,62.708000 C 67.300000,65.108000 69.700000,68.508000 73.600000,72.808000 C 78.700000,74.408000 84.000000,75.808000 89.200000,77.208000 C 90.800000,77.708000 92.500000,78.108000 94.200000,78.508000 C 96.600000,78.808000 99.300000,78.908000 102.30000,78.908000 C 105.40000,78.908000 108.80000,76.908000 112.70000,72.808000 C 114.70000,69.008000 115.20000,65.208000 113.90000,61.208000 C 112.70000,57.308000 111.10000,54.208000 108.90000,52.008000 C 106.70000,50.008000 105.20000,48.408000 104.30000,47.508000 C 100.20000,43.608000 96.500000,39.608000 93.000000,35.108000 C 92.800000,34.708000 92.500000,34.408000 92.200000,34.008000 L 90.000000,33.708000 C 88.200000,34.008000 86.300000,34.508000 84.400000,35.108000 C 84.100000,35.208000 83.900000,35.308000 83.600000,35.408000 C 80.900000,36.408000 78.400000,37.808000 76.000000,39.508000 z "
                     i:knockout="Off" />
                </g>
              </g>
            </g>
          </g>
          <g
             id="g2984">
            <path
               id="path2986"
               d="M 28.000000,65.508000 C 27.900000,65.708000 27.900000,65.908000 27.700000,66.108000 C 27.000000,67.508000 26.100000,68.608000 25.000000,69.508000 C 25.000000,69.608000 25.100000,69.708000 25.200000,69.708000 C 25.500000,69.908000 25.600000,70.008000 25.900000,70.208000 C 25.900000,70.208000 25.900000,70.308000 25.900000,70.408000 C 25.900000,70.408000 25.900000,70.508000 25.900000,70.608000 C 26.400000,71.008000 27.000000,71.408000 27.600000,71.608000 C 28.300000,71.908000 28.900000,72.208000 29.400000,72.708000 C 30.800000,74.008000 32.300000,75.208000 33.600000,76.608000 C 34.000000,77.008000 34.300000,77.308000 34.700000,77.608000 C 36.200000,78.308000 37.700000,78.808000 39.500000,79.008000 C 40.200000,79.108000 41.000000,79.208000 41.700000,79.208000 C 44.900000,79.508000 47.000000,78.208000 48.300000,75.608000 C 49.800000,72.808000 50.800000,69.908000 51.300000,66.708000 C 51.500000,65.708000 51.600000,64.708000 51.600000,63.708000 C 51.600000,60.908000 50.400000,58.708000 48.000000,57.208000 C 47.500000,56.608000 47.000000,56.408000 46.300000,56.208000 C 44.800000,55.908000 43.300000,55.208000 41.800000,54.508000 C 40.300000,53.608000 38.700000,53.108000 37.100000,52.908000 C 37.100000,52.908000 37.100000,52.908000 37.100000,52.808000 C 37.100000,52.708000 37.100000,52.708000 37.000000,52.608000 L 37.000000,52.608000 C 36.500000,52.508000 36.200000,52.408000 35.700000,52.408000 C 35.500000,52.508000 35.200000,52.608000 34.900000,52.708000 L 34.900000,52.808000 C 34.600000,52.708000 34.300000,52.708000 34.000000,52.808000 L 34.000000,52.908000 C 33.900000,52.908000 33.800000,53.008000 33.700000,53.008000 C 33.700000,53.008000 33.600000,53.008000 33.500000,53.108000 C 33.500000,53.108000 33.400000,53.208000 33.300000,53.308000 C 33.300000,53.408000 33.300000,53.408000 33.200000,53.508000 C 33.100000,53.608000 33.000000,53.708000 33.000000,53.908000 C 32.700000,54.608000 32.400000,55.108000 32.000000,55.708000 C 31.900000,56.008000 31.700000,56.208000 31.600000,56.608000 C 31.600000,56.608000 31.600000,56.608000 31.700000,56.708000 C 31.700000,56.708000 31.800000,56.808000 31.900000,56.908000 C 31.900000,56.908000 32.000000,56.908000 32.100000,57.008000 C 32.100000,57.008000 32.300000,57.008000 32.300000,56.908000 C 32.400000,56.908000 32.500000,56.708000 32.500000,56.608000 C 32.900000,56.008000 33.300000,55.408000 33.700000,54.708000 C 33.700000,54.608000 33.800000,54.508000 33.800000,54.508000 C 33.700000,54.708000 33.600000,55.008000 33.500000,55.208000 C 32.600000,56.408000 31.900000,57.608000 31.300000,58.808000 C 31.300000,58.908000 31.300000,58.908000 31.300000,59.008000 L 31.300000,59.108000 C 31.100000,59.208000 31.000000,59.408000 31.000000,59.508000 C 30.900000,59.508000 30.900000,59.608000 30.900000,59.608000 C 30.700000,60.008000 30.500000,60.508000 30.400000,61.008000 C 29.900000,62.608000 29.000000,64.108000 28.000000,65.508000 z M 27.400000,69.608000 C 27.400000,69.408000 27.300000,69.108000 27.100000,68.908000 C 27.000000,68.908000 27.100000,68.908000 27.100000,68.808000 C 27.400000,68.508000 27.600000,68.108000 27.800000,67.708000 C 28.400000,66.708000 29.000000,65.708000 29.700000,64.908000 C 29.800000,64.608000 30.000000,64.408000 30.100000,64.108000 C 30.300000,64.008000 30.400000,63.708000 30.500000,63.508000 C 30.400000,63.108000 30.500000,62.908000 30.600000,62.608000 C 30.900000,62.208000 31.100000,61.808000 31.200000,61.408000 C 31.300000,61.308000 31.300000,61.208000 31.400000,61.108000 C 31.400000,61.108000 31.400000,61.008000 31.500000,61.008000 C 31.500000,60.608000 31.700000,60.108000 32.000000,59.708000 C 33.000000,57.808000 34.100000,55.908000 35.200000,53.908000 C 35.800000,53.908000 36.500000,54.008000 37.200000,54.008000 C 37.500000,54.108000 38.000000,54.208000 38.300000,54.308000 C 38.700000,54.608000 39.200000,55.008000 39.700000,55.108000 C 42.600000,56.108000 45.400000,57.408000 48.100000,58.708000 C 48.100000,58.808000 48.100000,58.808000 48.100000,58.908000 C 48.100000,58.908000 48.100000,59.008000 48.200000,59.008000 C 48.300000,59.208000 48.500000,59.508000 48.800000,59.608000 C 49.000000,59.808000 49.100000,60.008000 49.300000,60.108000 C 49.300000,60.208000 49.500000,60.408000 49.500000,60.508000 C 49.600000,60.608000 49.600000,60.608000 49.600000,60.608000 C 49.600000,60.708000 49.600000,60.708000 49.600000,60.808000 C 49.700000,60.908000 49.700000,60.908000 49.700000,61.008000 C 50.500000,62.508000 50.700000,64.108000 50.300000,65.908000 C 50.000000,67.208000 49.700000,68.508000 49.200000,69.708000 C 49.000000,70.908000 48.700000,72.008000 48.300000,73.008000 C 47.900000,73.708000 47.500000,74.408000 47.000000,75.008000 C 47.000000,75.108000 47.000000,75.208000 47.000000,75.208000 C 47.000000,75.308000 47.000000,75.408000 47.000000,75.408000 C 47.000000,75.508000 47.000000,75.508000 47.000000,75.608000 C 46.500000,76.208000 45.900000,76.608000 45.200000,77.008000 C 42.800000,78.008000 40.300000,78.108000 37.700000,77.508000 C 37.300000,77.308000 36.800000,77.108000 36.400000,76.908000 C 34.100000,75.508000 32.100000,73.608000 30.400000,71.408000 C 29.700000,71.008000 29.000000,70.508000 28.400000,70.008000 C 28.000000,69.908000 27.700000,69.708000 27.500000,69.708000 C 27.500000,69.608000 27.500000,69.608000 27.400000,69.608000 z "
               i:knockout="Off" />
            <linearGradient
               gradientTransform="matrix(8.500000e-3,-1.880000e-2,1.330000e-2,6.000000e-3,-5.852400,270.4716)"
               y2="-2914.9419"
               x2="10760.650"
               y1="-2914.9419"
               x1="9122.2500"
               gradientUnits="userSpaceOnUse"
               id="linearGradient4415">
              <stop
                 id="stop4417"
                 style="stop-color:#000000"
                 offset="0.0275" />
              <stop
                 id="stop4419"
                 style="stop-color:#979797"
                 offset="0.5412" />
              <stop
                 id="stop4421"
                 style="stop-color:#000000"
                 offset="1" />
              <a:midPointStop
                 style="stop-color:#000000"
                 offset="0.0275" />
              <a:midPointStop
                 style="stop-color:#000000"
                 offset="0.5" />
              <a:midPointStop
                 style="stop-color:#979797"
                 offset="0.5412" />
              <a:midPointStop
                 style="stop-color:#979797"
                 offset="0.5" />
              <a:midPointStop
                 style="stop-color:#000000"
                 offset="1" />
            </linearGradient>
            <path
               style="fill:url(#XMLID_98_)"
               id="path2995"
               d="M 27.100000,68.908000 C 27.300000,69.108000 27.400000,69.408000 27.400000,69.608000 C 27.500000,69.608000 27.500000,69.608000 27.500000,69.708000 C 27.700000,69.708000 28.000000,69.908000 28.400000,70.008000 C 29.000000,70.508000 29.700000,71.008000 30.400000,71.408000 C 32.100000,73.608000 34.100000,75.508000 36.400000,76.908000 C 36.800000,77.108000 37.300000,77.308000 37.700000,77.508000 C 40.300000,78.108000 42.800000,78.008000 45.200000,77.008000 C 45.900000,76.608000 46.500000,76.208000 47.000000,75.608000 C 47.000000,75.508000 47.000000,75.508000 47.000000,75.408000 C 47.000000,75.408000 47.000000,75.308000 47.000000,75.208000 C 47.000000,75.208000 47.000000,75.108000 47.000000,75.008000 C 47.500000,74.408000 47.900000,73.708000 48.300000,73.008000 C 48.700000,72.008000 49.000000,70.908000 49.200000,69.708000 C 49.700000,68.508000 50.000000,67.208000 50.300000,65.908000 C 50.700000,64.108000 50.500000,62.508000 49.700000,61.008000 C 49.700000,60.908000 49.700000,60.908000 49.600000,60.808000 C 49.600000,60.708000 49.600000,60.708000 49.600000,60.608000 C 49.600000,60.608000 49.600000,60.608000 49.500000,60.508000 C 49.500000,60.408000 49.300000,60.208000 49.300000,60.108000 C 49.100000,60.008000 49.000000,59.808000 48.800000,59.608000 C 48.500000,59.508000 48.300000,59.208000 48.200000,59.008000 C 48.100000,59.008000 48.100000,58.908000 48.100000,58.908000 C 48.100000,58.808000 48.100000,58.808000 48.100000,58.708000 C 45.400000,57.408000 42.600000,56.108000 39.700000,55.108000 C 39.200000,55.008000 38.700000,54.608000 38.300000,54.308000 C 38.000000,54.208000 37.500000,54.108000 37.200000,54.008000 C 36.500000,54.008000 35.800000,53.908000 35.200000,53.908000 C 34.100000,55.908000 33.000000,57.808000 32.000000,59.708000 C 31.700000,60.108000 31.500000,60.608000 31.500000,61.008000 C 31.400000,61.008000 31.400000,61.108000 31.400000,61.108000 C 31.300000,61.208000 31.300000,61.308000 31.200000,61.408000 C 31.100000,61.808000 30.900000,62.208000 30.600000,62.608000 C 30.500000,62.908000 30.400000,63.108000 30.500000,63.508000 C 30.400000,63.708000 30.300000,64.008000 30.100000,64.108000 C 30.000000,64.408000 29.800000,64.608000 29.700000,64.908000 C 29.000000,65.708000 28.400000,66.708000 27.800000,67.708000 C 27.600000,68.108000 27.400000,68.508000 27.100000,68.808000 C 27.100000,68.908000 27.000000,68.908000 27.100000,68.908000 z "
               i:knockout="Off" />
          </g>
        </g>
      </g>
    </g>
  </g>
</svg>
